/* XPM */
static char * check_xpm[] = {
"48 48 865 2",
"  	c None",
". 	c #78789F",
"+ 	c #77779C",
"@ 	c #767697",
"# 	c #8282A1",
"$ 	c #9393B2",
"% 	c #C0C0D2",
"& 	c #C3C3D4",
"* 	c #ADADC4",
"= 	c #8686A4",
"- 	c #727292",
"; 	c #757597",
"> 	c #8585B0",
", 	c #A9A9C4",
"' 	c #FCFCFE",
") 	c #F4F4F7",
"! 	c #EEEEF4",
"~ 	c #EAEAF2",
"{ 	c #E7E7EF",
"] 	c #D6D6E1",
"^ 	c #ABABC1",
"/ 	c #81819D",
"( 	c #6B6B86",
"_ 	c #6F6F8C",
": 	c #8B8BB0",
"< 	c #FFFFFF",
"[ 	c #FEFEFF",
"} 	c #FBFBFD",
"| 	c #F7F7F8",
"1 	c #F2F2F6",
"2 	c #ECECF3",
"3 	c #E9E9F0",
"4 	c #E7E7F0",
"5 	c #D4D4E1",
"6 	c #A8A8BB",
"7 	c #7A7A93",
"8 	c #63637C",
"9 	c #666682",
"0 	c #8585B1",
"a 	c #CCCCDD",
"b 	c #FFFFFE",
"c 	c #FEFEFE",
"d 	c #FBFBFC",
"e 	c #F6F6F8",
"f 	c #F1F1F6",
"g 	c #ECECF2",
"h 	c #E9E9F1",
"i 	c #E8E8F0",
"j 	c #D0D0DD",
"k 	c #A1A1B4",
"l 	c #74748B",
"m 	c #5E5E72",
"n 	c #5F5F78",
"o 	c #7F7FA9",
"p 	c #FAFAFC",
"q 	c #F6F6F9",
"r 	c #F1F1F4",
"s 	c #E7E7F1",
"t 	c #A1A1B3",
"u 	c #717185",
"v 	c #54546C",
"w 	c #5C5C70",
"x 	c #A3A3BF",
"y 	c #F5F5F7",
"z 	c #F0F0F5",
"A 	c #E8E8F2",
"B 	c #D7D7E4",
"C 	c #858596",
"D 	c #555566",
"E 	c #555564",
"F 	c #565667",
"G 	c #8484B0",
"H 	c #C5C5D7",
"I 	c #FDFDFE",
"J 	c #FAFAFB",
"K 	c #F7F7F9",
"L 	c #EAEAF0",
"M 	c #7D7D8C",
"N 	c #59596F",
"O 	c #6C6C8E",
"P 	c #6B6B8E",
"Q 	c #61617F",
"R 	c #545467",
"S 	c #4E4E69",
"T 	c #8181AD",
"U 	c #E6E6ED",
"V 	c #6A6A7B",
"W 	c #8585A9",
"X 	c #ABABDF",
"Y 	c #9F9FD3",
"Z 	c #9595C9",
"` 	c #8C8CC0",
" .	c #8484B9",
"..	c #696991",
"+.	c #48485D",
"@.	c #7979A2",
"#.	c #9191A0",
"$.	c #505068",
"%.	c #8C8CB4",
"&.	c #BEBEEF",
"*.	c #C1C1F5",
"=.	c #B3B3E6",
"-.	c #A8A8DB",
";.	c #9E9ED1",
">.	c #9898CC",
",.	c #6E6E93",
"'.	c #46465A",
").	c #8787AA",
"!.	c #E8E8EB",
"~.	c #57576F",
"{.	c #9595C6",
"].	c #6D6D8F",
"^.	c #44445A",
"/.	c #6D6D8B",
"(.	c #B0B0DD",
"_.	c #C5C5F9",
":.	c #BBBBEE",
"<.	c #B2B2E5",
"[.	c #A9A9DC",
"}.	c #414150",
"|.	c #9999B6",
"1.	c #FEFEFD",
"2.	c #9595A1",
"3.	c #7B7BA0",
"4.	c #9D9DD2",
"5.	c #A0A0D5",
"6.	c #A0A0D4",
"7.	c #3F3F4E",
"8.	c #7B7B9A",
"9.	c #D1D1FF",
"0.	c #CDCDFF",
"a.	c #CACAFD",
"b.	c #CCCCFF",
"c.	c #4B4B5C",
"d.	c #A9A9C2",
"e.	c #F7F7FB",
"f.	c #F9F9FB",
"g.	c #FCFCFD",
"h.	c #FDFDFF",
"i.	c #5D5D71",
"j.	c #8D8DC1",
"k.	c #9393C6",
"l.	c #9797CB",
"m.	c #6A6A8B",
"n.	c #74748F",
"o.	c #D5D5FF",
"p.	c #3D3D49",
"q.	c #7C7CA4",
"r.	c #B5B5CA",
"s.	c #F5F5FA",
"t.	c #F3F3F8",
"u.	c #F4F4F9",
"v.	c #F6F6FA",
"w.	c #DBDBE0",
"x.	c #4F4F66",
"y.	c #5D5D7F",
"z.	c #8181B2",
"A.	c #9292C9",
"B.	c #4C4C62",
"C.	c #A9A9D4",
"D.	c #CBCBFE",
"E.	c #D0D0FF",
"F.	c #A3A3CA",
"G.	c #3A3A42",
"H.	c #7C7CA1",
"I.	c #C1C1D2",
"J.	c #F0F0F7",
"K.	c #EEEEF6",
"L.	c #F1F1F8",
"M.	c #AEAEB9",
"N.	c #56566C",
"O.	c #48485C",
"P.	c #424252",
"Q.	c #595974",
"R.	c #49495C",
"S.	c #BDBDF2",
"T.	c #BDBDF1",
"U.	c #C6C6FB",
"V.	c #CACAFC",
"W.	c #474755",
"X.	c #C9C9DB",
"Y.	c #EAEAF5",
"Z.	c #EAEAF4",
"`.	c #ECECF5",
" +	c #EDEDF5",
".+	c #EFEFF6",
"++	c #F2F2F8",
"@+	c #F5F5F9",
"#+	c #F8F8FB",
"$+	c #878797",
"%+	c #3C3C46",
"&+	c #3C3C45",
"*+	c #8787AE",
"=+	c #A7A7D9",
"-+	c #9191BB",
";+	c #484855",
">+	c #767699",
",+	c #D2D2E1",
"'+	c #E5E5F2",
")+	c #E6E6F2",
"!+	c #E7E7F2",
"~+	c #E9E9F3",
"{+	c #F9F9FD",
"]+	c #646477",
"^+	c #343436",
"/+	c #3A3A40",
"(+	c #747495",
"_+	c #D9D9E9",
":+	c #E1E1F0",
"<+	c #E1E1EF",
"[+	c #E3E3F0",
"}+	c #E4E4F1",
"|+	c #EDEDF6",
"1+	c #F3F3F9",
"2+	c #70708E",
"3+	c #DCDCEE",
"4+	c #DBDBEC",
"5+	c #DDDDED",
"6+	c #DEDEEE",
"7+	c #E0E0EF",
"8+	c #E7E7F3",
"9+	c #F2F2F9",
"0+	c #DEDEE6",
"a+	c #56566A",
"b+	c #71718F",
"c+	c #DCDCEF",
"d+	c #D7D7EA",
"e+	c #D9D9EB",
"f+	c #DADAEC",
"g+	c #DCDCEC",
"h+	c #DFDFEE",
"i+	c #E2E2EF",
"j+	c #E5E5F1",
"k+	c #E8E8F3",
"l+	c #EBEBF4",
"m+	c #EFEFF8",
"n+	c #C4C4CF",
"o+	c #56566B",
"p+	c #797995",
"q+	c #D7D7EC",
"r+	c #D3D3E8",
"s+	c #D4D4E9",
"t+	c #D6D6E9",
"u+	c #E2E2F0",
"v+	c #ECECF7",
"w+	c #AFAFBD",
"x+	c #565669",
"y+	c #82829D",
"z+	c #D2D2E9",
"A+	c #CECEE6",
"B+	c #D0D0E6",
"C+	c #D1D1E7",
"D+	c #D6D6EA",
"E+	c #DCDCED",
"F+	c #E8E8F4",
"G+	c #9C9CAB",
"H+	c #8A8AA5",
"I+	c #CDCDE7",
"J+	c #CACAE4",
"K+	c #CCCCE4",
"L+	c #CDCDE5",
"M+	c #D0D0E7",
"N+	c #E5E5F4",
"O+	c #8B8B9B",
"P+	c #9292AD",
"Q+	c #C7C7E5",
"R+	c #C6C6E2",
"S+	c #C7C7E2",
"T+	c #C9C9E3",
"U+	c #CBCBE4",
"V+	c #CFCFE6",
"W+	c #D2D2E7",
"X+	c #D5D5E9",
"Y+	c #D8D8EA",
"Z+	c #E5E5F3",
"`+	c #A7A7B2",
" @	c #80B283",
".@	c #008800",
"+@	c #008B00",
"@@	c #0C9209",
"#@	c #0B9008",
"$@	c #008700",
"%@	c #008200",
"&@	c #676782",
"*@	c #9A9AB7",
"=@	c #C3C3E0",
"-@	c #C1C1DF",
";@	c #C4C4E1",
">@	c #C8C8E2",
",@	c #CCCCE5",
"'@	c #D4D4E8",
")@	c #A4D2AD",
"!@	c #259D24",
"~@	c #49B535",
"{@	c #76CC57",
"]@	c #88D766",
"^@	c #82D463",
"/@	c #79D05C",
"(@	c #6FCB53",
"_@	c #52BB3E",
":@	c #2AA21F",
"<@	c #068803",
"[@	c #9999C2",
"}@	c #C5C5DC",
"|@	c #B2B2CF",
"1@	c #8585B2",
"2@	c #8787B5",
"3@	c #64647E",
"4@	c #A5A5C4",
"5@	c #BDBDDE",
"6@	c #BDBDDD",
"7@	c #BEBEDE",
"8@	c #C0C0DF",
"9@	c #C5C5E1",
"0@	c #D8DCE8",
"a@	c #56B25B",
"b@	c #47B436",
"c@	c #97DD71",
"d@	c #9BDF77",
"e@	c #92DA6F",
"f@	c #76D051",
"g@	c #60C63A",
"h@	c #4EBF29",
"i@	c #41B920",
"j@	c #3BB51D",
"k@	c #39B51F",
"l@	c #35B320",
"m@	c #169A0D",
"n@	c #008500",
"o@	c #9696C8",
"p@	c #BCBCD8",
"q@	c #BBBBD1",
"r@	c #8080A6",
"s@	c #7D7DA6",
"t@	c #5D5D73",
"u@	c #AEAED2",
"v@	c #B8B8DB",
"w@	c #BABADC",
"x@	c #BBBBDC",
"y@	c #C2C2DF",
"z@	c #D5D9E6",
"A@	c #3BA53F",
"B@	c #70C854",
"C@	c #9DDF79",
"D@	c #9CDE7A",
"E@	c #7CD350",
"F@	c #62CA30",
"G@	c #59C62B",
"H@	c #52C127",
"I@	c #4ABD24",
"J@	c #42B920",
"K@	c #3AB51C",
"L@	c #31B118",
"M@	c #29AD14",
"N@	c #22AB11",
"O@	c #169F09",
"P@	c #007E00",
"Q@	c #9797C0",
"R@	c #EFEFF3",
"S@	c #7B7B9D",
"T@	c #656584",
"U@	c #A7A7CC",
"V@	c #B6B6DD",
"W@	c #B6B6DA",
"X@	c #B5B5D9",
"Y@	c #B7B7DA",
"Z@	c #BFBFDE",
"`@	c #52AD59",
" #	c #70C953",
".#	c #9EDF7B",
"+#	c #95DC73",
"@#	c #69CE37",
"##	c #65CC32",
"$#	c #64CB31",
"%#	c #5CC62D",
"&#	c #52C128",
"*#	c #3BB51C",
"=#	c #1FA90E",
"-#	c #17A40A",
";#	c #0D9A08",
">#	c #007A00",
",#	c #AFAFCC",
"'#	c #DEDEE9",
")#	c #E1E1EB",
"!#	c #E6E6EE",
"~#	c #F8F8FA",
"{#	c #FDFDFD",
"]#	c #C6C6D3",
"^#	c #777792",
"/#	c #757595",
"(#	c #9E9EC3",
"_#	c #B4B4DD",
":#	c #B4B4DA",
"<#	c #B5B5DA",
"[#	c #BCBCDD",
"}#	c #97C5A5",
"|#	c #45B233",
"1#	c #9EE07A",
"2#	c #97DD75",
"3#	c #66CC34",
"4#	c #66CC33",
"5#	c #66CB32",
"6#	c #61CA31",
"7#	c #5AC52C",
"8#	c #51C128",
"9#	c #49BD24",
"0#	c #41B81F",
"a#	c #3AB41B",
"b#	c #30B016",
"c#	c #1EA909",
"d#	c #5BBD4C",
"e#	c #32B119",
"f#	c #13A407",
"g#	c #05880C",
"h#	c #8484AD",
"i#	c #AEAECA",
"j#	c #CFCFE0",
"k#	c #D3D3E1",
"l#	c #D8D8E5",
"m#	c #DDDDE9",
"n#	c #E3E3EC",
"o#	c #EEEEF3",
"p#	c #F3F3F7",
"q#	c #CDCDD6",
"r#	c #77778D",
"s#	c #676784",
"t#	c #9595B7",
"u#	c #B3B3DC",
"v#	c #B3B3D9",
"w#	c #B4B4D9",
"x#	c #2AA32C",
"y#	c #93DB6F",
"z#	c #9DDE7D",
"A#	c #6CCE3B",
"B#	c #65CB32",
"C#	c #63C930",
"D#	c #5DC62D",
"E#	c #55C32A",
"F#	c #4EBF26",
"G#	c #46BB22",
"H#	c #40B71E",
"I#	c #36B319",
"J#	c #1EAA08",
"K#	c #B6DAB0",
"L#	c #FDF3FF",
"M#	c #EDEDEC",
"N#	c #56C135",
"O#	c #03940E",
"P#	c #007805",
"Q#	c #8080A8",
"R#	c #9D9DBC",
"S#	c #C1C1D5",
"T#	c #C4C4D8",
"U#	c #CACADC",
"V#	c #CFCFDF",
"W#	c #D5D5E3",
"X#	c #DADAE7",
"Y#	c #E0E0EA",
"Z#	c #E5E5EE",
"`#	c #EAEAF1",
" $	c #D7D7DC",
".$	c #7C7C8B",
"+$	c #5B5B72",
"@$	c #8A8AAB",
"#$	c #B1B1D9",
"$$	c #B2B2DA",
"%$	c #B2B2D8",
"&$	c #B9B9DC",
"*$	c #9FC1B0",
"=$	c #3FAF30",
"-$	c #93DA75",
";$	c #7DD256",
">$	c #5FC82D",
",$	c #60CA30",
"'$	c #60C930",
")$	c #5BC62D",
"!$	c #56C52C",
"~$	c #50C027",
"{$	c #44BA21",
"]$	c #3BB61D",
"^$	c #21AB0A",
"/$	c #B8DDB2",
"($	c #F9F4FA",
"_$	c #F3F2F3",
":$	c #FAF5FD",
"<$	c #B0DF98",
"[$	c #139E0D",
"}$	c #007D15",
"|$	c #8282A8",
"1$	c #B3B3CD",
"2$	c #B7B7D0",
"3$	c #BCBCD2",
"4$	c #C1C1D6",
"5$	c #C7C7D9",
"6$	c #DCDCE8",
"7$	c #E2E2EC",
"8$	c #EDEDF3",
"9$	c #E1E1E3",
"0$	c #82828D",
"a$	c #4F4F61",
"b$	c #82829F",
"c$	c #ADADD6",
"d$	c #C1C1E2",
"e$	c #61A86D",
"f$	c #69C550",
"g$	c #8FD873",
"h$	c #58C52F",
"i$	c #5AC52B",
"j$	c #5BC62C",
"k$	c #59C52C",
"l$	c #54C229",
"m$	c #4CBE25",
"n$	c #46BC22",
"o$	c #3EB71D",
"p$	c #23AC0B",
"q$	c #BADFB4",
"r$	c #FEF8FE",
"s$	c #F7F7F7",
"t$	c #F9F7FA",
"u$	c #F3F5EF",
"v$	c #67CA3D",
"w$	c #019704",
"x$	c #007E23",
"y$	c #007000",
"z$	c #8181A6",
"A$	c #8C8CAD",
"B$	c #AAAAC8",
"C$	c #AFAFCA",
"D$	c #B3B3CE",
"E$	c #B9B9D0",
"F$	c #BEBED4",
"G$	c #C3C3D7",
"H$	c #CECEDE",
"I$	c #D4D4E2",
"J$	c #D9D9E6",
"K$	c #DFDFE9",
"L$	c #E4E4ED",
"M$	c #F0F0F2",
"N$	c #666670",
"O$	c #4A4A56",
"P$	c #9E9EB0",
"Q$	c #37993D",
"R$	c #7DD061",
"S$	c #78CE5D",
"T$	c #4DC024",
"U$	c #2BAB12",
"V$	c #0B9A01",
"W$	c #2EB013",
"X$	c #4FC127",
"Y$	c #49BE25",
"Z$	c #3FB71D",
"`$	c #25AD0C",
" %	c #BCE1B5",
".%	c #FFFAFF",
"+%	c #FAF9FA",
"@%	c #FDFBFE",
"#%	c #F6F8F3",
"$%	c #69CB3E",
"%%	c #0BA002",
"&%	c #009504",
"*%	c #007C28",
"=%	c #006F04",
"-%	c #76769A",
";%	c #7E7EA0",
">%	c #9898B9",
",%	c #A6A6C4",
"'%	c #ABABC8",
")%	c #B0B0CA",
"!%	c #B5B5CE",
"~%	c #C0C0D5",
"{%	c #C5C5D9",
"]%	c #CBCBDC",
"^%	c #D0D0E0",
"/%	c #D6D6E4",
"(%	c #DBDBE7",
"_%	c #E1E1E8",
":%	c #666672",
"<%	c #4C4C5C",
"[%	c #50505F",
"}%	c #818188",
"|%	c #1B8A1B",
"1%	c #7ACF60",
"2%	c #64C745",
"3%	c #139E03",
"4%	c #74B776",
"5%	c #F0E6F1",
"6%	c #58B659",
"7%	c #26AE0D",
"8%	c #44BA20",
"9%	c #3DB71D",
"0%	c #26AD0C",
"a%	c #BDE2B6",
"b%	c #FFFCFF",
"c%	c #FCFCFC",
"d%	c #F9FDF7",
"e%	c #6CCC40",
"f%	c #0FA105",
"g%	c #039A00",
"h%	c #009108",
"i%	c #00782B",
"j%	c #006F08",
"k%	c #717191",
"l%	c #7D7D9D",
"m%	c #9696B6",
"n%	c #A3A3C2",
"o%	c #A8A8C5",
"p%	c #ACACC9",
"q%	c #B2B2CC",
"r%	c #B7B7CF",
"s%	c #BDBDD3",
"t%	c #C2C2D6",
"u%	c #C8C8DA",
"v%	c #CDCDDE",
"w%	c #D3D3E2",
"x%	c #DCDCEA",
"y%	c #5E5E6C",
"z%	c #5D5D75",
"A%	c #696984",
"B%	c #65657D",
"C%	c #9292A2",
"D%	c #1D8D1E",
"E%	c #72CB5B",
"F%	c #49BA2F",
"G%	c #44A747",
"H%	c #EFE5F0",
"I%	c #E6E4E6",
"J%	c #F4EBF4",
"K%	c #68BF61",
"L%	c #22AC08",
"M%	c #25AC0B",
"N%	c #FAFDF7",
"O%	c #6DCD3F",
"P%	c #12A206",
"Q%	c #069C03",
"R%	c #019900",
"S%	c #008A11",
"T%	c #00752D",
"U%	c #006D08",
"V%	c #6B6B89",
"W%	c #787896",
"X%	c #9393B4",
"Y%	c #9F9FC1",
"Z%	c #A4A4C3",
"`%	c #A9A9C7",
" &	c #B0B0CB",
".&	c #B4B4CD",
"+&	c #BABAD1",
"@&	c #BFBFD4",
"#&	c #C7C7DB",
"$&	c #9999A9",
"%&	c #4E4E61",
"&&	c #767698",
"*&	c #717190",
"=&	c #9797AA",
"-&	c #288A2D",
";&	c #65C650",
">&	c #3EB527",
",&	c #35A836",
"'&	c #EEE5EE",
")&	c #E6E5E6",
"!&	c #EAE9EA",
"~&	c #F6F0F7",
"{&	c #B6DCB0",
"]&	c #CFE8CB",
"^&	c #FCFBFC",
"/&	c #FAFDF8",
"(&	c #6ECE40",
"_&	c #13A307",
":&	c #089D04",
"<&	c #039A01",
"[&	c #009800",
"}&	c #007E1F",
"|&	c #00732D",
"1&	c #006B05",
"2&	c #65657F",
"3&	c #73738F",
"4&	c #8F8FB1",
"5&	c #9C9CBE",
"6&	c #A1A1C0",
"7&	c #A5A5C3",
"8&	c #ABABC7",
"9&	c #B1B1CB",
"0&	c #BBBBD5",
"a&	c #6C6C7C",
"b&	c #444457",
"c&	c #646480",
"d&	c #7F7FA5",
"e&	c #9696B3",
"f&	c #4A9253",
"g&	c #48B638",
"h&	c #1AA808",
"i&	c #50B548",
"j&	c #F0E8F1",
"k&	c #EBEAEB",
"l&	c #EEEDEE",
"m&	c #F5F3F6",
"n&	c #F9F7F9",
"o&	c #FBFBFB",
"p&	c #FFFEFF",
"q&	c #099D04",
"r&	c #049A01",
"s&	c #009400",
"t&	c #007032",
"u&	c #00722B",
"v&	c #006800",
"w&	c #5D5D72",
"x&	c #6F6F8A",
"y&	c #8E8EB1",
"z&	c #9898BC",
"A&	c #9D9DBE",
"B&	c #A2A2C1",
"C&	c #AEAECB",
"D&	c #595969",
"E&	c #7E7EA4",
"F&	c #8181A9",
"G&	c #54546A",
"H&	c #3F3F4C",
"I&	c #777791",
"J&	c #82A695",
"K&	c #239D1A",
"L&	c #3AB429",
"M&	c #25AB11",
"N&	c #1CA909",
"O&	c #61BF54",
"P&	c #F5EDF6",
"Q&	c #EFEFF0",
"R&	c #F4F4F4",
"S&	c #F8F7F8",
"T&	c #FEFCFF",
"U&	c #FAFEF7",
"V&	c #049B02",
"W&	c #009700",
"X&	c #008316",
"Y&	c #006D35",
"Z&	c #006E1C",
"`&	c #565668",
" *	c #6A6A86",
".*	c #8A8AAE",
"+*	c #9595BA",
"@*	c #9C9CC1",
"#*	c #5C5C6B",
"$*	c #8383AC",
"%*	c #8888B2",
"&*	c #79799E",
"**	c #4C4C5B",
"=*	c #7C7E81",
"-*	c #138413",
";*	c #35B227",
">*	c #1CA70D",
",*	c #1EA70E",
"'*	c #1DA809",
")*	c #76C85F",
"!*	c #F9F2FB",
"~*	c #F5F4F6",
"{*	c #FBF8FC",
"]*	c #F8FAF5",
"^*	c #6ECE41",
"/*	c #11A206",
"(*	c #009500",
"_*	c #009001",
":*	c #006D31",
"<*	c #006907",
"[*	c #4F4F5D",
"}*	c #666680",
"|*	c #8A8AB2",
"1*	c #6C6C85",
"2*	c #5A5A6D",
"3*	c #7C7CA2",
"4*	c #7D7DA3",
"5*	c #8181A8",
"6*	c #8686B0",
"7*	c #8787A4",
"8*	c #72A482",
"9*	c #15960F",
"0*	c #18A60C",
"a*	c #16A30A",
"b*	c #15A309",
"c*	c #1DA90A",
"d*	c #85D267",
"e*	c #F1F3EF",
"f*	c #EDF6E7",
"g*	c #6FCE41",
"h*	c #0EA105",
"i*	c #059B01",
"j*	c #029901",
"k*	c #009200",
"l*	c #00732C",
"m*	c #006C35",
"n*	c #006C1E",
"o*	c #4D4D59",
"p*	c #494953",
"q*	c #5F5F76",
"r*	c #424249",
"s*	c #787899",
"t*	c #78789B",
"u*	c #7A7A9E",
"v*	c #A6A6C1",
"w*	c #348D3B",
"x*	c #0DA006",
"y*	c #0E9F06",
"z*	c #0B9E05",
"A*	c #19A609",
"B*	c #3CB817",
"C*	c #3AB717",
"D*	c #0B9F04",
"E*	c #019A00",
"F*	c #009600",
"G*	c #009300",
"H*	c #008F00",
"I*	c #00732B",
"J*	c #006A36",
"K*	c #006C2A",
"L*	c #46464E",
"M*	c #404047",
"N*	c #43434A",
"O*	c #6A6A87",
"P*	c #737393",
"Q*	c #747496",
"R*	c #77779A",
"S*	c #7F7FA2",
"T*	c #99A2AD",
"U*	c #187C18",
"V*	c #059602",
"W*	c #059D02",
"X*	c #059C02",
"Y*	c #009900",
"Z*	c #008510",
"`*	c #006E32",
" =	c #006C34",
".=	c #006803",
"+=	c #3F3F44",
"@=	c #3A3A3D",
"#=	c #525262",
"$=	c #63637B",
"%=	c #676780",
"&=	c #58586B",
"*=	c #454548",
"==	c #A6B5A7",
"-=	c #007400",
";=	c #008703",
">=	c #009506",
",=	c #008C08",
"'=	c #008116",
")=	c #006D33",
"!=	c #006D30",
"~=	c #006601",
"{=	c #39393C",
"]=	c #38383B",
"^=	c #38383A",
"/=	c #007104",
"(=	c #007914",
"_=	c #007D1E",
":=	c #007C23",
"<=	c #007728",
"[=	c #00742B",
"}=	c #00722C",
"|=	c #007129",
"1=	c #006C1C",
"2=	c #006908",
"3=	c #006C00",
"4=	c #006A04",
"5=	c #006C07",
"6=	c #006B08",
"7=	c #006805",
"8=	c #006500",
"                                                                                                ",
"                                                                                                ",
"                                        . + @                                                   ",
"                                    # $ % & * = - ;                                             ",
"                                  > , ' ) ! ~ { ] ^ / ( _                                       ",
"                                  : < < [ } | 1 2 3 4 5 6 7 8 9                                 ",
"                                0 a < < < < b c d e f g h i j k l m n                           ",
"                                o < < < < < < < < b c p q r g h s j t u v w                     ",
"                                x < < < < < < < < < < < b c p y z 2 h A B C D E F               ",
"                              G H < < < < < < < < < < < < < c < I J K L M N O P Q R S           ",
"                              T U < < < < < < < < < < < < < < < < < b V W X Y Z `  ...+.        ",
"                              @.[ < < < < < < < < < < < < < < < < < #.$.%.&.*.=.-.;.>.,.'.      ",
"                              ).< b < < < < < < < < < < < < < < < !.~.{.].^./.(._.:.<.[.}.      ",
"                              |.< } 1.b c < < < < < < < < < < < < 2.3.4.5.6.7.8.9.0.a.b.c.      ",
"                              d.' e.f.p g.h.b c < < < < < < < < < i.j.k.l.m.n.o.0.b.0.9.p.      ",
"                            q.r.s.t.u.v.e.f.p g.h.b c < < < < < w.x.y.z.A.B.C.D.D.b.E.F.G.      ",
"                            H.I.J.K.J.L.t.u.v.e.f.p g.h.b c < < M.N.O.P.Q.R.).S.T.U.V.W.        ",
"                            . X.Y.Z.`. +.+J.++t.@+v.#+f.d g.h.< $+        %+&+*+=+-+;+          ",
"                            >+,+'+)+!+~+Z.`. +.+J.++t.@+v.#+{+< ]+            ^+G./+            ",
"                            (+_+:+<+[+}+)+!+~+Z.`.|+.+J.++1+v.s.R                               ",
"                            2+3+4+5+6+7+<+[+}+)+8+~+Z.`.|+.+9+0+a+                              ",
"                            b+c+d+e+f+g+5+h+7+i+[+j+)+k+~+l+m+n+o+                              ",
"                            p+q+r+s+t+d+e+f+g+5+h+7+u+[+j+)+v+w+x+                              ",
"                            y+z+A+B+C+r+s+D+d+e+f+E+5+h+7+u+F+G+                                ",
"                            H+I+J+K+L+A+M+C+r+s+D+d+e+f+E+5+N+O+                                ",
"                            P+Q+R+S+T+U+K+L+V+M+W+r+X+D+Y+e+Z+`+ @.@+@@@#@$@%@                  ",
"                          &@*@=@-@=@;@R+>@T+U+,@L+V+M+W+'@<+)@!@~@{@]@^@/@(@_@:@<@              ",
"        [@F.}@|@1@2@      3@4@5@6@7@8@-@=@9@R+>@T+U+,@A+0@a@b@c@d@e@f@g@h@i@j@k@l@m@n@          ",
"      o@p@< < < p q@r@s@  t@u@v@v@w@x@6@7@8@y@=@9@R+T+z@A@B@C@D@E@F@G@H@I@J@K@L@M@N@O@P@        ",
"      Q@R@z u.p < < [ % S@T@U@V@W@X@Y@v@w@x@6@Z@8@y@s+`@ #.#+#@###$#%#&#I@J@*#L@M@=#-#;#>#      ",
"      ,#'#)#!#g f ~#{#< < ]#^#/#(#_#:#<#X@Y@v@w@[#9@}#|#1#2#3#4#5#6#7#8#9#0#a#b#c#d#e#f#g#      ",
"    h#i#j#k#l#m#n#i o#p#d < < q#r#s#t#u#:#v#w#X@Y@V+x#y#z#A#B#4#C#D#E#F#G#H#I#J#K#L#M#N#O#P#    ",
"    Q#R#S#T#U#V#W#X#Y#Z#`#z v.[ <  $.$+$@$#$$$%$&$*$=$-$;$>$,$'$)$!$~$I@{$]$^$/$($_$:$<$[$}$    ",
"      |$1$2$3$4$5$a ,+B 6$7${ 8$p#} < 9$0$a$b$c$d$e$f$g$h$i$j$k$l$~$m$n$o$p$q$r$s$t$u$v$w$x$y$  ",
"      z$A$B$C$D$E$F$G$X.H$I$J$K$L$h z #+< M$N$O$P$Q$R$S$T$U$V$W$X$Y${$Z$`$ %.%+%@%#%$%%%&%*%=%  ",
"        -%;%>%,%'%)%!%q@~%{%]%^%/%(%)#i _%:%<%[%}%|%1%2%3%4%5%6%7%8%9%0%a%b%c%< d%e%f%g%h%i%j%  ",
"            k%l%m%n%o%p%q%r%s%t%u%v%w%x%y%z%A%B%C%D%E%F%G%H%I%J%K%L%M%a%b%{#< N%O%P%Q%R%S%T%U%  ",
"                V%W%X%Y%Z%`% &.&+&@&#&$&%&3.&&*&=&-&;&>&,&'&)&!&~&{&]&.%^&< /&(&_&:&<&[&}&|&1&  ",
"                    2&3&4&5&6&7&8&9&0&a&N.b&c&d&e&f&g&>&h&i&j&k&l&m&n&o&p&/&(&_&q&r&[&s&t&u&v&  ",
"                        w&x&y&z&A&B&C&D&E&F&G&H&I&J&K&L&M&N&O&P&Q&R&S&T&U&(&_&q&V&W&s&X&Y&Z&    ",
"                          m `& *.*+*@*#**&$*%*&***=*-*;*>*,*'*)*!*~*{*]*^*/*:&r&W&(*_*Y&:*<*    ",
"                              E [*}*|*1*2*3*4*5*6*7*8*9*0*a*b*c*d*e*f*g*h*i*j*[&s&k*l*m*n*      ",
"                                  o*p*q*r*_ s*t*u*E&v*w*;#x*y*z*A*B*C*D*E*[&F*G*H*I*J*K*v&      ",
"                                      L*M*N*O*P*Q*R*S*T*U*V*W*X*<&Y*[&W&(*s&k*Z*`* =K*.=        ",
"                                          +=@=#=$=%=&=*===-=;=>=W&W&F*G*,='=I*)=!=n*~=          ",
"                                              {=]=^=]=        /=(=_=:=<=[=}=|=1=2=              ",
"                                                                  3=4=5=6=7=8=                  ",
"                                                                                                "};
