/* XPM */
static char * collapse_xpm[] = {
"48 48 673 2",
"  	c None",
". 	c #A4A4A4",
"+ 	c #9F9F9F",
"@ 	c #9D9D9D",
"# 	c #989898",
"$ 	c #949494",
"% 	c #909090",
"& 	c #8B8B8B",
"* 	c #B0B0B0",
"= 	c #A9A8A8",
"- 	c #9B9B9A",
"; 	c #8C8A89",
"> 	c #858281",
", 	c #838180",
"' 	c #838080",
") 	c #868381",
"! 	c #868483",
"~ 	c #878686",
"{ 	c #858585",
"] 	c #868686",
"^ 	c #B5B5B5",
"/ 	c #AFAFAF",
"( 	c #929090",
"_ 	c #7E807F",
": 	c #91A2A8",
"< 	c #A5C6CF",
"[ 	c #B1D9E7",
"} 	c #B4E4F7",
"| 	c #B0E1F4",
"1 	c #A7D3E6",
"2 	c #9ABACA",
"3 	c #90A1AA",
"4 	c #898787",
"5 	c #82807F",
"6 	c #7B7B7B",
"7 	c #7E7E7E",
"8 	c #B7B7B7",
"9 	c #A4A3A3",
"0 	c #7B7C7D",
"a 	c #A1BCC3",
"b 	c #C6F3FF",
"c 	c #C5F2FE",
"d 	c #C2EDFA",
"e 	c #BEECF9",
"f 	c #B8E9F7",
"g 	c #B5E5F6",
"h 	c #AEE2F5",
"i 	c #ACE1F7",
"j 	c #A5DFF9",
"k 	c #A0D8F3",
"l 	c #95B0BE",
"m 	c #8B8B8A",
"n 	c #787777",
"o 	c #747373",
"p 	c #979695",
"q 	c #848F92",
"r 	c #CBF1F9",
"s 	c #DBF9FF",
"t 	c #DCF6FB",
"u 	c #D9F4FA",
"v 	c #D4F4FC",
"w 	c #CAEFFB",
"x 	c #BDEAF7",
"y 	c #B8E6F6",
"z 	c #B3E3F6",
"A 	c #ADDFF4",
"B 	c #A6DDF3",
"C 	c #A1D8F2",
"D 	c #9CD7F3",
"E 	c #96CAE6",
"F 	c #959C9F",
"G 	c #787675",
"H 	c #6F6F6F",
"I 	c #989696",
"J 	c #8B9BA0",
"K 	c #D8FBFF",
"L 	c #E3FAFE",
"M 	c #E2FAFD",
"N 	c #E3FBFC",
"O 	c #E4F9FC",
"P 	c #E5F9FB",
"Q 	c #E2F8FB",
"R 	c #DAF4FA",
"S 	c #C9EEFA",
"T 	c #BFE7F6",
"U 	c #B2E2F5",
"V 	c #A9DCF3",
"W 	c #A2D9F1",
"X 	c #9DD4F1",
"Y 	c #96D2F0",
"Z 	c #90CDEE",
"` 	c #99A5AC",
" .	c #747372",
"..	c #6A6A6A",
"+.	c #BBBBBB",
"@.	c #A3A2A2",
"#.	c #838E92",
"$.	c #D4F9FF",
"%.	c #DFF8FC",
"&.	c #E1F9FB",
"*.	c #E8FBFC",
"=.	c #EDFCFD",
"-.	c #E8FBFD",
";.	c #E1FAFC",
">.	c #DBF5FB",
",.	c #D4F2FA",
"'.	c #CCEFF9",
").	c #B7E5F6",
"!.	c #AEDEF4",
"~.	c #A3DAF1",
"{.	c #9FD5F0",
"].	c #97D2EE",
"^.	c #94D0F0",
"/.	c #8BCAEE",
"(.	c #9DA2A5",
"_.	c #6B6A69",
":.	c #7D7E7E",
"<.	c #BEEAF6",
"[.	c #DDF6FC",
"}.	c #DEF9FB",
"|.	c #E9FAFD",
"1.	c #F6FDFF",
"2.	c #F6FFFF",
"3.	c #EFFCFD",
"4.	c #DCF8FB",
"5.	c #D7F4FB",
"6.	c #D2F4FB",
"7.	c #CDEFFB",
"8.	c #BDE8F7",
"9.	c #B0E3F5",
"0.	c #ABDEF4",
"a.	c #A4DCF3",
"b.	c #9ED5F0",
"c.	c #93CFED",
"d.	c #90CDEF",
"e.	c #8BC2E4",
"f.	c #918E8D",
"g.	c #636362",
"h.	c #949291",
"i.	c #9BB8C1",
"j.	c #CAF1FB",
"k.	c #DAF3FA",
"l.	c #E4F8FC",
"m.	c #F1FBFC",
"n.	c #F6FEFF",
"o.	c #F4FCFD",
"p.	c #F3FCFD",
"q.	c #E7FAFC",
"r.	c #D3F4FB",
"s.	c #CEF0FA",
"t.	c #CBEDF9",
"u.	c #C2EAF7",
"v.	c #B0E2F5",
"w.	c #ACDEF4",
"x.	c #A4DAF4",
"y.	c #97D3EE",
"z.	c #91CDED",
"A.	c #98CFEF",
"B.	c #85C9F0",
"C.	c #A0B6C5",
"D.	c #6D6C6B",
"E.	c #656565",
"F.	c #AAA9A9",
"G.	c #7E7F7F",
"H.	c #B8EBFB",
"I.	c #CBEEFA",
"J.	c #DBF5FA",
"K.	c #EEFAFD",
"L.	c #F3FDFD",
"M.	c #F5FCFD",
"N.	c #F2FDFE",
"O.	c #E6F9FB",
"P.	c #D0F3FB",
"Q.	c #CBEFFB",
"R.	c #C5EDF7",
"S.	c #C0E9F6",
"T.	c #AEE1F4",
"U.	c #9DD4F0",
"V.	c #96D1EE",
"W.	c #92CCED",
"X.	c #94CFF0",
"Y.	c #86C1E5",
"Z.	c #928E8E",
"`.	c #5D5D5D",
" +	c #9D9C9C",
".+	c #8A9DA4",
"++	c #B6E8FC",
"@+	c #C8EEFA",
"#+	c #DFF5FC",
"$+	c #E1F7FB",
"%+	c #DEF5FB",
"&+	c #EFFBFC",
"*+	c #EDFAFC",
"=+	c #CAEFFA",
"-+	c #C6EDF9",
";+	c #C2E9F6",
">+	c #BBE7F5",
",+	c #A1D7F1",
"'+	c #9BD4EF",
")+	c #95D2EE",
"!+	c #8FCCED",
"~+	c #8CC9ED",
"{+	c #A1D4F0",
"]+	c #7AC2EE",
"^+	c #ABB4BA",
"/+	c #595958",
"(+	c #8E8C8B",
"_+	c #9ABCCA",
":+	c #B3E6F8",
"<+	c #BFE8F7",
"[+	c #DFF4FC",
"}+	c #F22C00",
"|+	c #F62E00",
"1+	c #F82F00",
"2+	c #EB2900",
"3+	c #E52600",
"4+	c #DF2200",
"5+	c #D81F00",
"6+	c #D21C00",
"7+	c #CC1900",
"8+	c #C31400",
"9+	c #BA1000",
"0+	c #B10B00",
"a+	c #A80700",
"b+	c #9F0200",
"c+	c #88C9ED",
"d+	c #A6D5F1",
"e+	c #80C3ED",
"f+	c #A3C1D3",
"g+	c #676664",
"h+	c #9B9B9B",
"i+	c #868382",
"j+	c #A2D0E3",
"k+	c #ADE0F5",
"l+	c #B5E4F6",
"m+	c #D9F1FA",
"n+	c #FF8556",
"o+	c #FF8A5B",
"p+	c #FF8051",
"q+	c #FF7C4C",
"r+	c #FF7747",
"s+	c #FF7343",
"t+	c #FF6E3E",
"u+	c #FF6A39",
"v+	c #FF6634",
"w+	c #FF622F",
"x+	c #FF5D2B",
"y+	c #FF5926",
"z+	c #FF3603",
"A+	c #76B1D2",
"B+	c #A8D5F1",
"C+	c #86C6EC",
"D+	c #96C0DC",
"E+	c #7A7877",
"F+	c #595959",
"G+	c #999998",
"H+	c #848080",
"I+	c #A4D7EF",
"J+	c #A9DDF4",
"K+	c #C6EBF6",
"L+	c #FF8354",
"M+	c #FF7345",
"N+	c #FF7143",
"O+	c #FF6D3F",
"P+	c #FF6839",
"Q+	c #FF6233",
"R+	c #FF5D2D",
"S+	c #FF5727",
"T+	c #FF5221",
"U+	c #FF4C1B",
"V+	c #FF4715",
"W+	c #FF410F",
"X+	c #FF3C09",
"Y+	c #EB2B02",
"Z+	c #78B1D2",
"`+	c #A9D5F1",
" @	c #89C6EC",
".@	c #8EC2E1",
"+@	c #84817F",
"@@	c #585858",
"#@	c #9ED5EE",
"$@	c #A4DCF4",
"%@	c #AADCF3",
"&@	c #BAE5F4",
"*@	c #EE2A00",
"=@	c #FF6A3B",
"-@	c #FF6637",
";@	c #FF6131",
">@	c #FF5B2B",
",@	c #7CB3D2",
"'@	c #A7D5F0",
")@	c #87C5EC",
"!@	c #8FC2E3",
"~@	c #555555",
"{@	c #98C8E0",
"]@	c #A1D7F3",
"^@	c #B4E1F3",
"/@	c #E92800",
"(@	c #EB532E",
"_@	c #EB522C",
":@	c #EB4E29",
"<@	c #EB4A24",
"[@	c #EB4721",
"}@	c #EB431C",
"|@	c #EB4019",
"1@	c #EB3B14",
"2@	c #EB370F",
"3@	c #EB320A",
"4@	c #EB2E06",
"5@	c #EB2A01",
"6@	c #9C0100",
"7@	c #87B7D4",
"8@	c #A6D3EF",
"9@	c #7EC2EB",
"0@	c #9BC6E3",
"a@	c #777573",
"b@	c #888685",
"c@	c #90B6C9",
"d@	c #9AD5F2",
"e@	c #9DD5F0",
"f@	c #A8DAF3",
"g@	c #E32400",
"h@	c #DD2100",
"i@	c #D61E00",
"j@	c #C61600",
"k@	c #BD1100",
"l@	c #B40D00",
"m@	c #AB0800",
"n@	c #A50500",
"o@	c #93BED7",
"p@	c #A3D3F0",
"q@	c #71BBE9",
"r@	c #B4CFE1",
"s@	c #5F5D5C",
"t@	c #868585",
"u@	c #8B9FAA",
"v@	c #96D4F3",
"w@	c #98D3EF",
"x@	c #9BD4F0",
"y@	c #A0D6F3",
"z@	c #8CBED5",
"A@	c #8FBED5",
"B@	c #8DBDD5",
"C@	c #89BCD4",
"D@	c #89BBD4",
"E@	c #86BAD3",
"F@	c #84B8D3",
"G@	c #81B6D2",
"H@	c #7DB4D2",
"I@	c #7AB2D2",
"J@	c #76B0D1",
"K@	c #72ADD1",
"L@	c #7AB1D2",
"M@	c #99C0D7",
"N@	c #98CDEF",
"O@	c #66B6E9",
"P@	c #C1C9CC",
"Q@	c #4A4A49",
"R@	c #838382",
"S@	c #878888",
"T@	c #8FCDEF",
"U@	c #92CFEF",
"V@	c #95CFEE",
"W@	c #97D1EE",
"X@	c #99D4EF",
"Y@	c #99D3EF",
"Z@	c #96CFEE",
"`@	c #92CDED",
" #	c #8ECCED",
".#	c #8CCAED",
"+#	c #88C8EC",
"@#	c #84C6EB",
"##	c #80C3EB",
"$#	c #7AC0EB",
"%#	c #A7D4F1",
"&#	c #A4D2F0",
"*#	c #7FC1EA",
"=#	c #87C2E8",
"-#	c #9D9A98",
";#	c #4D4D4D",
">#	c #888888",
",#	c #8DAEC0",
"'#	c #8DCDF1",
")#	c #92CEEE",
"!#	c #8ECBED",
"~#	c #89C8EC",
"{#	c #88C9EC",
"]#	c #82C5EB",
"^#	c #7FC2EB",
"/#	c #78BFEA",
"(#	c #99CDEF",
"_#	c #A7D5EF",
":#	c #97CCEE",
"<#	c #63B3E8",
"[#	c #CAD9E6",
"}#	c #565554",
"|#	c #7A7A7A",
"1#	c #8C8C8C",
"2#	c #89C5E8",
"3#	c #89C9EE",
"4#	c #8AC9EC",
"5#	c #8DCAED",
"6#	c #8BC9ED",
"7#	c #84C5EB",
"8#	c #81C3EB",
"9#	c #7DC1EA",
"0#	c #95CCEF",
"a#	c #A8D5F0",
"b#	c #9DD0EF",
"c#	c #6EB8E7",
"d#	c #94C9EB",
"e#	c #A19C9A",
"f#	c #474747",
"g#	c #7D7D7D",
"h#	c #797878",
"i#	c #939CA1",
"j#	c #83C7F0",
"k#	c #84C7EC",
"l#	c #85C7EC",
"m#	c #85C8EC",
"n#	c #7ABEEA",
"o#	c #9FD1F0",
"p#	c #9CCFEF",
"q#	c #75BBE9",
"r#	c #74BBE8",
"s#	c #CECFCF",
"t#	c #464545",
"u#	c #535353",
"v#	c #737373",
"w#	c #7B7978",
"x#	c #95A6AF",
"y#	c #7DC2EC",
"z#	c #7FC3ED",
"A#	c #83C5EB",
"B#	c #7CC1EA",
"C#	c #7BC0EA",
"D#	c #7BBFEA",
"E#	c #84C3EB",
"F#	c #95CCED",
"G#	c #A0CFEE",
"H#	c #95CBEE",
"I#	c #6DB8E7",
"J#	c #73B9E8",
"K#	c #D3D7DB",
"L#	c #525150",
"M#	c #5C5C5C",
"N#	c #8F8F8F",
"O#	c #6E6E6E",
"P#	c #7C7C7C",
"Q#	c #939393",
"R#	c #797A7B",
"S#	c #787776",
"T#	c #9BA4AA",
"U#	c #81BCE3",
"V#	c #78BFEC",
"W#	c #83C4EC",
"X#	c #8AC7EB",
"Y#	c #8DC8ED",
"Z#	c #8FC8EC",
"`#	c #93CBEE",
" $	c #9BCFEF",
".$	c #9DCFEF",
"+$	c #9BCEEF",
"@$	c #93CAEE",
"#$	c #7DBFE9",
"$$	c #60B2E7",
"%$	c #8FC4EA",
"&$	c #D0D1D2",
"*$	c #5B5B5B",
"=$	c #C3C3C3",
"-$	c #9C9C9C",
";$	c #ABADAD",
">$	c #75797C",
",$	c #696969",
"'$	c #989595",
")$	c #98B5CA",
"!$	c #78BCE6",
"~$	c #6FBBEB",
"{$	c #77BEEB",
"]$	c #7DC0EB",
"^$	c #6EBAE9",
"/$	c #61B3E9",
"($	c #7BBCE7",
"_$	c #C4DCEB",
":$	c #ABA7A4",
"<$	c #474645",
"[$	c #BDBDBD",
"}$	c #EEEEEE",
"|$	c #D3D3D3",
"1$	c #CECECE",
"2$	c #D4D4D5",
"3$	c #8F9397",
"4$	c #AB5C35",
"5$	c #D72E00",
"6$	c #6B6B6B",
"7$	c #626262",
"8$	c #737270",
"9$	c #9D9998",
"0$	c #AABBC4",
"a$	c #98BED4",
"b$	c #88BEDE",
"c$	c #82BCE2",
"d$	c #83BDE4",
"e$	c #91C1E2",
"f$	c #A9CBE1",
"g$	c #CBD7DF",
"h$	c #AFAAA7",
"i$	c #5D5B5A",
"j$	c #464646",
"k$	c #4A4A4A",
"l$	c #848484",
"m$	c #B1B1B1",
"n$	c #C5C5C5",
"o$	c #E2E2E2",
"p$	c #F7F7F8",
"q$	c #A9ADB1",
"r$	c #AD7D51",
"s$	c #DB732E",
"t$	c #E06223",
"u$	c #EE3705",
"v$	c #5C5B5A",
"w$	c #716F6D",
"x$	c #8E8B89",
"y$	c #908C8B",
"z$	c #848180",
"A$	c #666462",
"B$	c #4A4949",
"C$	c #4F4F4F",
"D$	c #5E5E5E",
"E$	c #B6B6B6",
"F$	c #F4F5F5",
"G$	c #C0C3C8",
"H$	c #AA9264",
"I$	c #E3A14A",
"J$	c #EE9543",
"K$	c #F78538",
"L$	c #FB6F29",
"M$	c #FF3D06",
"N$	c #545454",
"O$	c #969696",
"P$	c #CCCCCC",
"Q$	c #B3B5B9",
"R$	c #A08E68",
"S$	c #E6B758",
"T$	c #F3C15F",
"U$	c #FFB657",
"V$	c #FFA149",
"W$	c #FF8A3A",
"X$	c #FF712A",
"Y$	c #A3A4A4",
"Z$	c #9DA0A3",
"`$	c #91765D",
" %	c #E19D48",
".%	c #F1C060",
"+%	c #FFCC67",
"@%	c #FFCA65",
"#%	c #FFB858",
"$%	c #FFA04A",
"%%	c #FF8B3B",
"&%	c #FF732B",
"*%	c #FF4007",
"=%	c #717171",
"-%	c #86898B",
";%	c #7F6052",
">%	c #D56826",
",%	c #E88B3E",
"'%	c #FBB255",
")%	c #FFCB65",
"!%	c #FFCE67",
"~%	c #FFCB66",
"{%	c #FFB859",
"]%	c #FF8C3C",
"^%	c #FF742C",
"/%	c #FF3F08",
"(%	c #D42900",
"_%	c #D85219",
":%	c #EF7730",
"<%	c #FF9844",
"[%	c #FFB356",
"}%	c #FFB959",
"|%	c #FFA24A",
"1%	c #FF8D3C",
"2%	c #FF752C",
"3%	c #FF420A",
"4%	c #E73100",
"5%	c #F25B1D",
"6%	c #FF7E32",
"7%	c #FF9742",
"8%	c #FFB255",
"9%	c #FFC965",
"0%	c #FFBA5A",
"a%	c #FFA34A",
"b%	c #FF8E3D",
"c%	c #FF762D",
"d%	c #FF430B",
"e%	c #FD3400",
"f%	c #FE5F1D",
"g%	c #FF7D31",
"h%	c #FF9642",
"i%	c #FFB155",
"j%	c #FFC964",
"k%	c #FFCC66",
"l%	c #FFBB5B",
"m%	c #FFA54B",
"n%	c #FF772E",
"o%	c #FF440B",
"p%	c #FF3400",
"q%	c #FF5D1B",
"r%	c #FF7C31",
"s%	c #FF9541",
"t%	c #FFB054",
"u%	c #FFC864",
"v%	c #FFCC65",
"w%	c #FFA44B",
"x%	c #FF8F3D",
"y%	c #FF772A",
"z%	c #B1624A",
"A%	c #757A7C",
"B%	c #FF3500",
"C%	c #FF5C1A",
"D%	c #FF7B30",
"E%	c #FF9440",
"F%	c #FFAF53",
"G%	c #FFBC5C",
"H%	c #FFA548",
"I%	c #C38D65",
"J%	c #949B9F",
"K%	c #A0A1A1",
"L%	c #FF3300",
"M%	c #FF5B1A",
"N%	c #FF7A30",
"O%	c #FF9340",
"P%	c #FFAE53",
"Q%	c #FFC763",
"R%	c #FFCD66",
"S%	c #FFCC62",
"T%	c #E0BB84",
"U%	c #AEB4B9",
"V%	c #959595",
"W%	c #FF5A19",
"X%	c #FF7A2F",
"Y%	c #FF923F",
"Z%	c #FFAE51",
"`%	c #FFC760",
" &	c #EBCB88",
".&	c #D3D7DC",
"+&	c #E7E7E8",
"@&	c #767676",
"#&	c #FF5718",
"$&	c #FF792D",
"%&	c #FF913D",
"&&	c #E1A462",
"*&	c #B9BDC1",
"=&	c #FFFFFF",
"-&	c #D7D7D7",
";&	c #FF3200",
">&	c #FF5615",
",&	c #E5783D",
"'&	c #95989A",
")&	c #DADBDC",
"!&	c #D5D5D5",
"~&	c #919191",
"{&	c #707070",
"]&	c #E93D10",
"^&	c #7D7D7E",
"/&	c #B0B3B3",
"(&	c #B9B9B9",
"_&	c #808080",
":&	c #8F9192",
"<&	c #9A9A9A",
"[&	c #747474",
"}&	c #6C6C6C",
"|&	c #6D6D6D",
"                                                                                                ",
"                                                                                                ",
"                                                                                                ",
"                          . + @ # $ % &                                                         ",
"                      * = - ; > , ' ) ! ~ { ]                                                   ",
"                  ^ / ( _ : < [ } | 1 2 3 4 5 6 7                                               ",
"                8 9 0 a b c d e f g h i j k l m n o                                             ",
"              8 p q r s t u v w x y z A B C D E F G H                                           ",
"            ^ I J K L M N O P Q R S T U V W X Y Z `  ...                                        ",
"          +.@.#.$.%.&.*.=.-.;.>.,.'.).U !.~.{.].^./.(._.                                        ",
"          * :.<.[.}.|.1.2.3.4.5.6.7.8.9.0.a.b.].c.d.e.f.g.                                      ",
"        ^ h.i.j.k.l.m.n.o.p.q.r.s.t.u.v.w.x.{.y.z.A.B.C.D.E.                                    ",
"        F.G.H.I.J.P K.L.M.N.O.P.Q.R.S.T.V W U.V.z.W.X.Y.Z.`.                                    ",
"         +.+++@+#+$+%+&+&+*+5.=+-+;+>+A V ,+'+)+!+~+{+]+^+/+                                    ",
"      + (+_+:+<+[+}+|+1+|+}+2+3+4+5+6+7+8+9+0+a+b+c+d+e+f+g+                                    ",
"      h+i+j+k+l+m+}+n+o+n+p+q+r+s+t+u+v+w+x+y+z+b+A+B+C+D+E+F+                                  ",
"      G+H+I+J+| K+}+L+M+N+O+P+Q+R+S+T+U+V+W+X+Y+b+Z+`+ @.@+@@@                                  ",
"      $ +@#@$@%@&@*@p+O+O+=@-@;@>@S+T+U+V+W+X+Y+b+,@'@)@!@+@~@                                  ",
"      % ) {@]@W ^@/@P+(@(@_@:@<@[@}@|@1@2@3@4@5@6@7@8@9@0@a@~@                                  ",
"      & b@c@d@e@f@g@3+3+3+g@4+h@i@6+7+j@k@l@m@n@6@o@p@q@r@s@                                    ",
"        t@u@v@w@x@y@z@z@A@z@B@C@D@E@F@G@H@I@J@K@L@M@N@O@P@Q@                                    ",
"        R@S@T@U@V@W@].X@Y@X@].V.Z@`@ #.#+#@###$#%#&#*#=#-#;#                                    ",
"        >#5 ,#'# #W.`@)#)#)#z.!+!#.#~#{#]#^#/#(#_#:#<#[#}#                                      ",
"          |#1#2#3#4#5#.#.#.#6#4#+#{#7#8#9#/#0#a#b#c#d#e#f#                                      ",
"          g#h#i#j#k#l#l#l#l#m#7#]###9#n#^#o#&#p#q#r#s#t#u#;#                                    ",
"            v#w#x#y#z#A###^#^#B#C#D#E#F#&#G#H#I#J#K#L#M#N#O#P#Q#R#                              ",
"              O#S#T#U#V#W#X#Y#Z#`# $.$+$@$#$$$%$&$L#*$=$+.-$* ;$>$                              ",
"                ,$D.'$)$!$~${$]$8#*#n#^$/$($_$:$<$~@[$}$|$1$2$3$4$5$                            ",
"                  6$7$8$9$0$a$b$c$d$e$f$g$h$i$j$k$l$m$n$o$p$q$r$s$t$u$                          ",
"                      7$M#v$w$> x$y$z$A$B$B$C$    D$N#E$F$G$H$I$J$K$L$M$                        ",
"                            *$F+@@~@N$N$          v#O$P$Q$R$S$T$U$V$W$X$M$                      ",
"                                                  P#Y$Z$`$ %.%+%@%#%$%%%&%*%                    ",
"                                                  =%-%;%>%,%'%)%!%~%{%V$]%^%/%                  ",
"                                                      (%_%:%<%[%@%!%~%}%|%1%2%3%                ",
"                                                        4%5%6%7%8%9%!%)%0%a%b%c%d%              ",
"                                                          e%f%g%h%i%j%k%)%l%m%b%n%o%            ",
"                                                            p%q%r%s%t%u%k%v%l%w%x%y%z%A%        ",
"                                                              B%C%D%E%F%u%!%v%G%H%I%J%K%H       ",
"                                                                L%M%N%O%P%Q%R%S%T%U%=$V%        ",
"                                                                  p%W%X%Y%Z%`% &.&+&E$@&        ",
"                                                                    L%#&$&%&&&*&=&-&] v#        ",
"                                                                      ;&>&,&'&)&!&>#~&{&        ",
"                                                                        ]&^&/&(&l$~&_&..        ",
"                                                                          :&<&[&{&[&}&          ",
"                                                                          |&..                  ",
"                                                                                                ",
"                                                                                                ",
"                                                                                                "};
