/* XPM */
static char * expand_xpm[] = {
"48 48 626 2",
"  	c None",
". 	c #A4A4A4",
"+ 	c #9F9F9F",
"@ 	c #9D9D9D",
"# 	c #989898",
"$ 	c #949494",
"% 	c #909090",
"& 	c #8B8B8B",
"* 	c #B0B0B0",
"= 	c #A9A8A8",
"- 	c #9B9B9A",
"; 	c #8C8A89",
"> 	c #858281",
", 	c #838180",
"' 	c #838080",
") 	c #868381",
"! 	c #868483",
"~ 	c #878686",
"{ 	c #858585",
"] 	c #868686",
"^ 	c #B5B5B5",
"/ 	c #AFAFAF",
"( 	c #929090",
"_ 	c #7E807F",
": 	c #91A2A8",
"< 	c #A5C6CF",
"[ 	c #B1D9E7",
"} 	c #B4E4F7",
"| 	c #B0E1F4",
"1 	c #A7D3E6",
"2 	c #9ABACA",
"3 	c #90A1AA",
"4 	c #898787",
"5 	c #82807F",
"6 	c #7B7B7B",
"7 	c #7E7E7E",
"8 	c #B7B7B7",
"9 	c #A4A3A3",
"0 	c #7B7C7D",
"a 	c #A1BCC3",
"b 	c #C6F3FF",
"c 	c #C5F2FE",
"d 	c #C2EDFA",
"e 	c #BEECF9",
"f 	c #B8E9F7",
"g 	c #B5E5F6",
"h 	c #AEE2F5",
"i 	c #ACE1F7",
"j 	c #A5DFF9",
"k 	c #A0D8F3",
"l 	c #95B0BE",
"m 	c #8B8B8A",
"n 	c #787777",
"o 	c #747373",
"p 	c #979695",
"q 	c #848F92",
"r 	c #CBF1F9",
"s 	c #DBF9FF",
"t 	c #DCF6FB",
"u 	c #D9F4FA",
"v 	c #D4F4FC",
"w 	c #CAEFFB",
"x 	c #BDEAF7",
"y 	c #B8E6F6",
"z 	c #B3E3F6",
"A 	c #ADDFF4",
"B 	c #A6DDF3",
"C 	c #A1D8F2",
"D 	c #9CD7F3",
"E 	c #96CAE6",
"F 	c #959C9F",
"G 	c #787675",
"H 	c #6F6F6F",
"I 	c #989696",
"J 	c #8B9BA0",
"K 	c #D8FBFF",
"L 	c #E3FAFE",
"M 	c #E2FAFD",
"N 	c #E3FBFC",
"O 	c #E4F9FC",
"P 	c #E5F9FB",
"Q 	c #E2F8FB",
"R 	c #DAF4FA",
"S 	c #C9EEFA",
"T 	c #BFE7F6",
"U 	c #B2E2F5",
"V 	c #A9DCF3",
"W 	c #A2D9F1",
"X 	c #9DD4F1",
"Y 	c #96D2F0",
"Z 	c #90CDEE",
"` 	c #99A5AC",
" .	c #747372",
"..	c #6A6A6A",
"+.	c #BBBBBB",
"@.	c #A3A2A2",
"#.	c #838E92",
"$.	c #D4F9FF",
"%.	c #DFF8FC",
"&.	c #E1F9FB",
"*.	c #E8FBFC",
"=.	c #EDFCFD",
"-.	c #E8FBFD",
";.	c #008D00",
">.	c #008B00",
",.	c #008900",
"'.	c #008300",
").	c #008100",
"!.	c #007F00",
"~.	c #AEDEF4",
"{.	c #A3DAF1",
"].	c #9FD5F0",
"^.	c #97D2EE",
"/.	c #94D0F0",
"(.	c #8BCAEE",
"_.	c #9DA2A5",
":.	c #6B6A69",
"<.	c #7D7E7E",
"[.	c #BEEAF6",
"}.	c #DDF6FC",
"|.	c #DEF9FB",
"1.	c #E9FAFD",
"2.	c #F6FDFF",
"3.	c #F6FFFF",
"4.	c #EFFCFD",
"5.	c #A5F786",
"6.	c #A4F585",
"7.	c #A0F181",
"8.	c #80E64D",
"9.	c #97C4D8",
"0.	c #A4DCF3",
"a.	c #9ED5F0",
"b.	c #93CFED",
"c.	c #90CDEF",
"d.	c #8BC2E4",
"e.	c #918E8D",
"f.	c #636362",
"g.	c #949291",
"h.	c #9BB8C1",
"i.	c #CAF1FB",
"j.	c #DAF3FA",
"k.	c #E4F8FC",
"l.	c #F1FBFC",
"m.	c #F6FEFF",
"n.	c #F4FCFD",
"o.	c #F3FCFD",
"p.	c #89EF56",
"q.	c #82E84F",
"r.	c #4DC72E",
"s.	c #98C4D8",
"t.	c #A4DAF4",
"u.	c #97D3EE",
"v.	c #91CDED",
"w.	c #98CFEF",
"x.	c #85C9F0",
"y.	c #A0B6C5",
"z.	c #6D6C6B",
"A.	c #656565",
"B.	c #AAA9A9",
"C.	c #7E7F7F",
"D.	c #B8EBFB",
"E.	c #CBEEFA",
"F.	c #DBF5FA",
"G.	c #EEFAFD",
"H.	c #F3FDFD",
"I.	c #F5FCFD",
"J.	c #F2FDFE",
"K.	c #A4F686",
"L.	c #88EE55",
"M.	c #81E74E",
"N.	c #4CC72E",
"O.	c #007E00",
"P.	c #96C3D7",
"Q.	c #9DD4F0",
"R.	c #96D1EE",
"S.	c #92CCED",
"T.	c #94CFF0",
"U.	c #86C1E5",
"V.	c #928E8E",
"W.	c #5D5D5D",
"X.	c #9D9C9C",
"Y.	c #8A9DA4",
"Z.	c #B6E8FC",
"`.	c #C8EEFA",
" +	c #DFF5FC",
".+	c #E1F7FB",
"++	c #DEF5FB",
"@+	c #EFFBFC",
"#+	c #EDFAFC",
"$+	c #87ED54",
"%+	c #007D00",
"&+	c #A1D7F1",
"*+	c #9BD4EF",
"=+	c #95D2EE",
"-+	c #8FCCED",
";+	c #8CC9ED",
">+	c #A1D4F0",
",+	c #7AC2EE",
"'+	c #ABB4BA",
")+	c #595958",
"!+	c #8E8C8B",
"~+	c #9ABCCA",
"{+	c #B3E6F8",
"]+	c #BFE8F7",
"^+	c #DFF4FC",
"/+	c #008800",
"(+	c #A3F484",
"_+	c #86EC53",
":+	c #4CC62D",
"<+	c #007B00",
"[+	c #007700",
"}+	c #007500",
"|+	c #007400",
"1+	c #007200",
"2+	c #88C9ED",
"3+	c #A6D5F1",
"4+	c #80C3ED",
"5+	c #A3C1D3",
"6+	c #676664",
"7+	c #9B9B9B",
"8+	c #868382",
"9+	c #A2D0E3",
"0+	c #ADE0F5",
"a+	c #B5E4F6",
"b+	c #D9F1FA",
"c+	c #A2F483",
"d+	c #84EA51",
"e+	c #7FE54C",
"f+	c #7DE34A",
"g+	c #9BED7D",
"h+	c #9BEC7C",
"i+	c #98EA7A",
"j+	c #97E979",
"k+	c #72D83F",
"l+	c #76B1D2",
"m+	c #A8D5F1",
"n+	c #86C6EC",
"o+	c #96C0DC",
"p+	c #7A7877",
"q+	c #595959",
"r+	c #999998",
"s+	c #848080",
"t+	c #A4D7EF",
"u+	c #A9DDF4",
"v+	c #C6EBF6",
"w+	c #83E950",
"x+	c #7EE44B",
"y+	c #7CE249",
"z+	c #7AE047",
"A+	c #78DE45",
"B+	c #75DB42",
"C+	c #73D940",
"D+	c #44BE25",
"E+	c #007100",
"F+	c #78B1D2",
"G+	c #A9D5F1",
"H+	c #89C6EC",
"I+	c #8EC2E1",
"J+	c #84817F",
"K+	c #585858",
"L+	c #9ED5EE",
"M+	c #A4DCF4",
"N+	c #AADCF3",
"O+	c #BAE5F4",
"P+	c #77DD44",
"Q+	c #70D63D",
"R+	c #42BC23",
"S+	c #006F00",
"T+	c #7CB3D2",
"U+	c #A7D5F0",
"V+	c #87C5EC",
"W+	c #8FC2E3",
"X+	c #555555",
"Y+	c #98C8E0",
"Z+	c #A1D7F3",
"`+	c #B4E1F3",
" @	c #47C229",
".@	c #47C128",
"+@	c #46C027",
"@@	c #43BD24",
"#@	c #006D00",
"$@	c #87B7D4",
"%@	c #A6D3EF",
"&@	c #7EC2EB",
"*@	c #9BC6E3",
"=@	c #777573",
"-@	c #888685",
";@	c #90B6C9",
">@	c #9AD5F2",
",@	c #9DD5F0",
"'@	c #A8DAF3",
")@	c #006E00",
"!@	c #006C00",
"~@	c #93BED7",
"{@	c #A3D3F0",
"]@	c #71BBE9",
"^@	c #B4CFE1",
"/@	c #5F5D5C",
"(@	c #868585",
"_@	c #8B9FAA",
":@	c #96D4F3",
"<@	c #98D3EF",
"[@	c #9BD4F0",
"}@	c #A0D6F3",
"|@	c #8CBED5",
"1@	c #8FBED5",
"2@	c #7DB4D2",
"3@	c #7AB2D2",
"4@	c #76B0D1",
"5@	c #72ADD1",
"6@	c #7AB1D2",
"7@	c #99C0D7",
"8@	c #98CDEF",
"9@	c #66B6E9",
"0@	c #C1C9CC",
"a@	c #4A4A49",
"b@	c #838382",
"c@	c #878888",
"d@	c #8FCDEF",
"e@	c #92CFEF",
"f@	c #95CFEE",
"g@	c #97D1EE",
"h@	c #99D4EF",
"i@	c #99D3EF",
"j@	c #79B2D2",
"k@	c #84C6EB",
"l@	c #80C3EB",
"m@	c #7AC0EB",
"n@	c #A7D4F1",
"o@	c #A4D2F0",
"p@	c #7FC1EA",
"q@	c #87C2E8",
"r@	c #9D9A98",
"s@	c #4D4D4D",
"t@	c #888888",
"u@	c #8DAEC0",
"v@	c #8DCDF1",
"w@	c #8ECCED",
"x@	c #92CDED",
"y@	c #92CEEE",
"z@	c #73AFD1",
"A@	c #7FC2EB",
"B@	c #78BFEA",
"C@	c #99CDEF",
"D@	c #A7D5EF",
"E@	c #97CCEE",
"F@	c #63B3E8",
"G@	c #CAD9E6",
"H@	c #565554",
"I@	c #7A7A7A",
"J@	c #8C8C8C",
"K@	c #89C5E8",
"L@	c #89C9EE",
"M@	c #8AC9EC",
"N@	c #8DCAED",
"O@	c #8CCAED",
"P@	c #6FABD0",
"Q@	c #95CCEF",
"R@	c #A8D5F0",
"S@	c #9DD0EF",
"T@	c #6EB8E7",
"U@	c #94C9EB",
"V@	c #A19C9A",
"W@	c #474747",
"X@	c #7D7D7D",
"Y@	c #797878",
"Z@	c #939CA1",
"`@	c #83C7F0",
" #	c #84C7EC",
".#	c #85C7EC",
"+#	c #71ADD1",
"@#	c #9FD1F0",
"##	c #9CCFEF",
"$#	c #75BBE9",
"%#	c #74BBE8",
"&#	c #CECFCF",
"*#	c #464545",
"=#	c #535353",
"-#	c #737373",
";#	c #7B7978",
">#	c #95A6AF",
",#	c #7DC2EC",
"'#	c #7FC3ED",
")#	c #83C5EB",
"!#	c #6EABD0",
"~#	c #6DABD0",
"{#	c #6DAAD0",
"]#	c #75AED1",
"^#	c #85B6D3",
"/#	c #92BCD6",
"(#	c #A0CFEE",
"_#	c #95CBEE",
":#	c #6DB8E7",
"<#	c #73B9E8",
"[#	c #D3D7DB",
"}#	c #525150",
"|#	c #5C5C5C",
"1#	c #8F8F8F",
"2#	c #6E6E6E",
"3#	c #7C7C7C",
"4#	c #939393",
"5#	c #797A7B",
"6#	c #787776",
"7#	c #9BA4AA",
"8#	c #81BCE3",
"9#	c #78BFEC",
"0#	c #83C4EC",
"a#	c #8AC7EB",
"b#	c #8DC8ED",
"c#	c #8FC8EC",
"d#	c #93CBEE",
"e#	c #9BCFEF",
"f#	c #9DCFEF",
"g#	c #9BCEEF",
"h#	c #93CAEE",
"i#	c #7DBFE9",
"j#	c #60B2E7",
"k#	c #8FC4EA",
"l#	c #D0D1D2",
"m#	c #5B5B5B",
"n#	c #C3C3C3",
"o#	c #9C9C9C",
"p#	c #ABADAD",
"q#	c #75797C",
"r#	c #696969",
"s#	c #989595",
"t#	c #98B5CA",
"u#	c #78BCE6",
"v#	c #6FBBEB",
"w#	c #77BEEB",
"x#	c #7DC0EB",
"y#	c #81C3EB",
"z#	c #7ABEEA",
"A#	c #6EBAE9",
"B#	c #61B3E9",
"C#	c #7BBCE7",
"D#	c #C4DCEB",
"E#	c #ABA7A4",
"F#	c #474645",
"G#	c #BDBDBD",
"H#	c #EEEEEE",
"I#	c #D3D3D3",
"J#	c #CECECE",
"K#	c #D4D4D5",
"L#	c #8F9397",
"M#	c #AB5C35",
"N#	c #D72E00",
"O#	c #6B6B6B",
"P#	c #626262",
"Q#	c #737270",
"R#	c #9D9998",
"S#	c #AABBC4",
"T#	c #98BED4",
"U#	c #88BEDE",
"V#	c #82BCE2",
"W#	c #83BDE4",
"X#	c #91C1E2",
"Y#	c #A9CBE1",
"Z#	c #CBD7DF",
"`#	c #AFAAA7",
" $	c #5D5B5A",
".$	c #464646",
"+$	c #4A4A4A",
"@$	c #848484",
"#$	c #B1B1B1",
"$$	c #C5C5C5",
"%$	c #E2E2E2",
"&$	c #F7F7F8",
"*$	c #A9ADB1",
"=$	c #AD7D51",
"-$	c #DB732E",
";$	c #E06223",
">$	c #EE3705",
",$	c #5C5B5A",
"'$	c #716F6D",
")$	c #8E8B89",
"!$	c #908C8B",
"~$	c #848180",
"{$	c #666462",
"]$	c #4A4949",
"^$	c #4F4F4F",
"/$	c #5E5E5E",
"($	c #B6B6B6",
"_$	c #F4F5F5",
":$	c #C0C3C8",
"<$	c #AA9264",
"[$	c #E3A14A",
"}$	c #EE9543",
"|$	c #F78538",
"1$	c #FB6F29",
"2$	c #FF3D06",
"3$	c #545454",
"4$	c #969696",
"5$	c #CCCCCC",
"6$	c #B3B5B9",
"7$	c #A08E68",
"8$	c #E6B758",
"9$	c #F3C15F",
"0$	c #FFB657",
"a$	c #FFA149",
"b$	c #FF8A3A",
"c$	c #FF712A",
"d$	c #A3A4A4",
"e$	c #9DA0A3",
"f$	c #91765D",
"g$	c #E19D48",
"h$	c #F1C060",
"i$	c #FFCC67",
"j$	c #FFCA65",
"k$	c #FFB858",
"l$	c #FFA04A",
"m$	c #FF8B3B",
"n$	c #FF732B",
"o$	c #FF4007",
"p$	c #717171",
"q$	c #86898B",
"r$	c #7F6052",
"s$	c #D56826",
"t$	c #E88B3E",
"u$	c #FBB255",
"v$	c #FFCB65",
"w$	c #FFCE67",
"x$	c #FFCB66",
"y$	c #FFB859",
"z$	c #FF8C3C",
"A$	c #FF742C",
"B$	c #FF3F08",
"C$	c #D42900",
"D$	c #D85219",
"E$	c #EF7730",
"F$	c #FF9844",
"G$	c #FFB356",
"H$	c #FFB959",
"I$	c #FFA24A",
"J$	c #FF8D3C",
"K$	c #FF752C",
"L$	c #FF420A",
"M$	c #E73100",
"N$	c #F25B1D",
"O$	c #FF7E32",
"P$	c #FF9742",
"Q$	c #FFB255",
"R$	c #FFC965",
"S$	c #FFBA5A",
"T$	c #FFA34A",
"U$	c #FF8E3D",
"V$	c #FF762D",
"W$	c #FF430B",
"X$	c #FD3400",
"Y$	c #FE5F1D",
"Z$	c #FF7D31",
"`$	c #FF9642",
" %	c #FFB155",
".%	c #FFC964",
"+%	c #FFCC66",
"@%	c #FFBB5B",
"#%	c #FFA54B",
"$%	c #FF772E",
"%%	c #FF440B",
"&%	c #FF3400",
"*%	c #FF5D1B",
"=%	c #FF7C31",
"-%	c #FF9541",
";%	c #FFB054",
">%	c #FFC864",
",%	c #FFCC65",
"'%	c #FFA44B",
")%	c #FF8F3D",
"!%	c #FF772A",
"~%	c #B1624A",
"{%	c #757A7C",
"]%	c #FF3500",
"^%	c #FF5C1A",
"/%	c #FF7B30",
"(%	c #FF9440",
"_%	c #FFAF53",
":%	c #FFBC5C",
"<%	c #FFA548",
"[%	c #C38D65",
"}%	c #949B9F",
"|%	c #A0A1A1",
"1%	c #FF3300",
"2%	c #FF5B1A",
"3%	c #FF7A30",
"4%	c #FF9340",
"5%	c #FFAE53",
"6%	c #FFC763",
"7%	c #FFCD66",
"8%	c #FFCC62",
"9%	c #E0BB84",
"0%	c #AEB4B9",
"a%	c #959595",
"b%	c #FF5A19",
"c%	c #FF7A2F",
"d%	c #FF923F",
"e%	c #FFAE51",
"f%	c #FFC760",
"g%	c #EBCB88",
"h%	c #D3D7DC",
"i%	c #E7E7E8",
"j%	c #767676",
"k%	c #FF5718",
"l%	c #FF792D",
"m%	c #FF913D",
"n%	c #E1A462",
"o%	c #B9BDC1",
"p%	c #FFFFFF",
"q%	c #D7D7D7",
"r%	c #FF3200",
"s%	c #FF5615",
"t%	c #E5783D",
"u%	c #95989A",
"v%	c #DADBDC",
"w%	c #D5D5D5",
"x%	c #919191",
"y%	c #707070",
"z%	c #E93D10",
"A%	c #7D7D7E",
"B%	c #B0B3B3",
"C%	c #B9B9B9",
"D%	c #808080",
"E%	c #8F9192",
"F%	c #9A9A9A",
"G%	c #747474",
"H%	c #6C6C6C",
"I%	c #6D6D6D",
"                                                                                                ",
"                                                                                                ",
"                                                                                                ",
"                          . + @ # $ % &                                                         ",
"                      * = - ; > , ' ) ! ~ { ]                                                   ",
"                  ^ / ( _ : < [ } | 1 2 3 4 5 6 7                                               ",
"                8 9 0 a b c d e f g h i j k l m n o                                             ",
"              8 p q r s t u v w x y z A B C D E F G H                                           ",
"            ^ I J K L M N O P Q R S T U V W X Y Z `  ...                                        ",
"          +.@.#.$.%.&.*.=.-.;.>.,.'.).!.~.{.].^./.(._.:.                                        ",
"          * <.[.}.|.1.2.3.4.;.5.6.7.8.!.9.0.a.^.b.c.d.e.f.                                      ",
"        ^ g.h.i.j.k.l.m.n.o.;.5.p.q.r.!.s.t.].u.v.w.x.y.z.A.                                    ",
"        B.C.D.E.F.P G.H.I.J.>.K.L.M.N.O.P.W Q.R.v.S.T.U.V.W.                                    ",
"        X.Y.Z.`. +.+++@+@+#+,.6.$+M.N.%+P.&+*+=+-+;+>+,+'+)+                                    ",
"      + !+~+{+]+^+;.;.;.>.,./+(+_+8.:+%+<+[+}+|+1+2+3+4+5+6+                                    ",
"      7+8+9+0+a+b+>.5.5.K.6.(+c+d+e+f+g+h+i+j+k+1+l+m+n+o+p+q+                                  ",
"      r+s+t+u+| v+,.6.p.L.$+_+d+w+x+y+z+A+B+C+D+E+F+G+H+I+J+K+                                  ",
"      $ J+L+M+N+O+'.7.q.M.M.8.e+x+z+A+P+B+k+Q+R+S+T+U+V+W+J+X+                                  ",
"      % ) Y+Z+W `+).8.r.N.N.:+f+y+A+ @.@+@D+@@R+#@$@%@&@*@=@X+                                  ",
"      & -@;@>@,@'@!.!.!.O.%+%+g+z+P+.@}+|+E+S+)@!@~@{@]@^@/@                                    ",
"        (@_@:@<@[@}@|@|@1@|@<+h+A+B++@|+2@3@4@5@6@7@8@9@0@a@                                    ",
"        b@c@d@e@f@g@^.h@i@h@[+i+B+k+D+E+j@k@l@m@n@o@p@q@r@s@                                    ",
"        t@5 u@v@w@S.x@y@y@y@}+j+C+Q+@@S+z@A@B@C@D@E@F@G@H@                                      ",
"          I@J@K@L@M@N@O@O@O@|+k+D+R+R+)@P@B@Q@R@S@T@U@V@W@                                      ",
"          X@Y@Z@`@ #.#.#.#.#1+1+E+S+#@!@+#@#o@##$#%#&#*#=#s@                                    ",
"            -#;#>#,#'#)#l@A@A@!#~#{#]#^#/#(#_#:#<#[#}#|#1#2#3#4#5#                              ",
"              2#6#7#8#9#0#a#b#c#d#e#f#g#h#i#j#k#l#}#m#n#+.o#* p#q#                              ",
"                r#z.s#t#u#v#w#x#y#p@z#A#B#C#D#E#F#X+G#H#I#J#K#L#M#N#                            ",
"                  O#P#Q#R#S#T#U#V#W#X#Y#Z#`# $.$+$@$#$$$%$&$*$=$-$;$>$                          ",
"                      P#|#,$'$> )$!$~${$]$]$^$    /$1#($_$:$<$[$}$|$1$2$                        ",
"                            m#q+K+X+3$3$          -#4$5$6$7$8$9$0$a$b$c$2$                      ",
"                                                  3#d$e$f$g$h$i$j$k$l$m$n$o$                    ",
"                                                  p$q$r$s$t$u$v$w$x$y$a$z$A$B$                  ",
"                                                      C$D$E$F$G$j$w$x$H$I$J$K$L$                ",
"                                                        M$N$O$P$Q$R$w$v$S$T$U$V$W$              ",
"                                                          X$Y$Z$`$ %.%+%v$@%#%U$$%%%            ",
"                                                            &%*%=%-%;%>%+%,%@%'%)%!%~%{%        ",
"                                                              ]%^%/%(%_%>%w$,%:%<%[%}%|%H       ",
"                                                                1%2%3%4%5%6%7%8%9%0%n#a%        ",
"                                                                  &%b%c%d%e%f%g%h%i%($j%        ",
"                                                                    1%k%l%m%n%o%p%q%] -#        ",
"                                                                      r%s%t%u%v%w%t@x%y%        ",
"                                                                        z%A%B%C%@$x%D%..        ",
"                                                                          E%F%G%y%G%H%          ",
"                                                                          I%..                  ",
"                                                                                                ",
"                                                                                                ",
"                                                                                                "};
