/* XPM */
static char * uncheck_xpm[] = {
"48 48 592 2",
"  	c None",
". 	c #78789F",
"+ 	c #77779C",
"@ 	c #767697",
"# 	c #8282A1",
"$ 	c #9393B2",
"% 	c #C0C0D2",
"& 	c #C3C3D4",
"* 	c #ADADC4",
"= 	c #8686A4",
"- 	c #727292",
"; 	c #757597",
"> 	c #8585B0",
", 	c #A9A9C4",
"' 	c #FCFCFE",
") 	c #F4F4F7",
"! 	c #EEEEF4",
"~ 	c #EAEAF2",
"{ 	c #E7E7EF",
"] 	c #D6D6E1",
"^ 	c #ABABC1",
"/ 	c #81819D",
"( 	c #6B6B86",
"_ 	c #6F6F8C",
": 	c #8B8BB0",
"< 	c #FFFFFF",
"[ 	c #FEFEFF",
"} 	c #FBFBFD",
"| 	c #F7F7F8",
"1 	c #F2F2F6",
"2 	c #ECECF3",
"3 	c #E9E9F0",
"4 	c #E7E7F0",
"5 	c #D4D4E1",
"6 	c #A8A8BB",
"7 	c #7A7A93",
"8 	c #63637C",
"9 	c #666682",
"0 	c #8585B1",
"a 	c #CCCCDD",
"b 	c #FFFFFE",
"c 	c #FEFEFE",
"d 	c #FBFBFC",
"e 	c #F6F6F8",
"f 	c #F1F1F6",
"g 	c #ECECF2",
"h 	c #E9E9F1",
"i 	c #E8E8F0",
"j 	c #D0D0DD",
"k 	c #A1A1B4",
"l 	c #74748B",
"m 	c #5E5E72",
"n 	c #5F5F78",
"o 	c #7F7FA9",
"p 	c #FAFAFC",
"q 	c #F6F6F9",
"r 	c #F1F1F4",
"s 	c #E7E7F1",
"t 	c #A1A1B3",
"u 	c #717185",
"v 	c #54546C",
"w 	c #5C5C70",
"x 	c #A3A3BF",
"y 	c #F5F5F7",
"z 	c #F0F0F5",
"A 	c #E8E8F2",
"B 	c #D7D7E4",
"C 	c #858596",
"D 	c #555566",
"E 	c #555564",
"F 	c #565667",
"G 	c #8484B0",
"H 	c #C5C5D7",
"I 	c #FDFDFE",
"J 	c #FAFAFB",
"K 	c #F7F7F9",
"L 	c #EAEAF0",
"M 	c #7D7D8C",
"N 	c #59596F",
"O 	c #6C6C8E",
"P 	c #6B6B8E",
"Q 	c #61617F",
"R 	c #545467",
"S 	c #4E4E69",
"T 	c #8181AD",
"U 	c #E6E6ED",
"V 	c #6A6A7B",
"W 	c #8585A9",
"X 	c #ABABDF",
"Y 	c #9F9FD3",
"Z 	c #9595C9",
"` 	c #8C8CC0",
" .	c #8484B9",
"..	c #696991",
"+.	c #48485D",
"@.	c #7979A2",
"#.	c #9191A0",
"$.	c #505068",
"%.	c #8C8CB4",
"&.	c #BEBEEF",
"*.	c #C1C1F5",
"=.	c #B3B3E6",
"-.	c #A8A8DB",
";.	c #9E9ED1",
">.	c #9898CC",
",.	c #6E6E93",
"'.	c #46465A",
").	c #8787AA",
"!.	c #E8E8EB",
"~.	c #57576F",
"{.	c #9595C6",
"].	c #6D6D8F",
"^.	c #44445A",
"/.	c #6D6D8B",
"(.	c #B0B0DD",
"_.	c #C5C5F9",
":.	c #BBBBEE",
"<.	c #B2B2E5",
"[.	c #A9A9DC",
"}.	c #414150",
"|.	c #9999B6",
"1.	c #FEFEFD",
"2.	c #9595A1",
"3.	c #7B7BA0",
"4.	c #9D9DD2",
"5.	c #A0A0D5",
"6.	c #A0A0D4",
"7.	c #3F3F4E",
"8.	c #7B7B9A",
"9.	c #D1D1FF",
"0.	c #CDCDFF",
"a.	c #CACAFD",
"b.	c #CCCCFF",
"c.	c #4B4B5C",
"d.	c #A9A9C2",
"e.	c #F7F7FB",
"f.	c #F9F9FB",
"g.	c #FCFCFD",
"h.	c #FDFDFF",
"i.	c #5D5D71",
"j.	c #8D8DC1",
"k.	c #9393C6",
"l.	c #9797CB",
"m.	c #6A6A8B",
"n.	c #74748F",
"o.	c #D5D5FF",
"p.	c #3D3D49",
"q.	c #7C7CA4",
"r.	c #B5B5CA",
"s.	c #F5F5FA",
"t.	c #F3F3F8",
"u.	c #F4F4F9",
"v.	c #F6F6FA",
"w.	c #DBDBE0",
"x.	c #4F4F66",
"y.	c #5D5D7F",
"z.	c #8181B2",
"A.	c #9292C9",
"B.	c #4C4C62",
"C.	c #A9A9D4",
"D.	c #CBCBFE",
"E.	c #D0D0FF",
"F.	c #A3A3CA",
"G.	c #3A3A42",
"H.	c #7C7CA1",
"I.	c #C1C1D2",
"J.	c #F0F0F7",
"K.	c #EEEEF6",
"L.	c #F1F1F8",
"M.	c #AEAEB9",
"N.	c #56566C",
"O.	c #48485C",
"P.	c #424252",
"Q.	c #595974",
"R.	c #49495C",
"S.	c #BDBDF2",
"T.	c #BDBDF1",
"U.	c #C6C6FB",
"V.	c #CACAFC",
"W.	c #474755",
"X.	c #C9C9DB",
"Y.	c #EAEAF5",
"Z.	c #EAEAF4",
"`.	c #ECECF5",
" +	c #EDEDF5",
".+	c #EFEFF6",
"++	c #F2F2F8",
"@+	c #F5F5F9",
"#+	c #F8F8FB",
"$+	c #878797",
"%+	c #3C3C46",
"&+	c #3C3C45",
"*+	c #8787AE",
"=+	c #A7A7D9",
"-+	c #9191BB",
";+	c #484855",
">+	c #767699",
",+	c #D2D2E1",
"'+	c #E5E5F2",
")+	c #E6E6F2",
"!+	c #E7E7F2",
"~+	c #E9E9F3",
"{+	c #F9F9FD",
"]+	c #646477",
"^+	c #343436",
"/+	c #3A3A40",
"(+	c #747495",
"_+	c #D9D9E9",
":+	c #E1E1F0",
"<+	c #E1E1EF",
"[+	c #E3E3F0",
"}+	c #E4E4F1",
"|+	c #EDEDF6",
"1+	c #F3F3F9",
"2+	c #70708E",
"3+	c #DCDCEE",
"4+	c #DBDBEC",
"5+	c #DDDDED",
"6+	c #DEDEEE",
"7+	c #E0E0EF",
"8+	c #E7E7F3",
"9+	c #F2F2F9",
"0+	c #DEDEE6",
"a+	c #56566A",
"b+	c #71718F",
"c+	c #DCDCEF",
"d+	c #D7D7EA",
"e+	c #D9D9EB",
"f+	c #DADAEC",
"g+	c #DCDCEC",
"h+	c #DFDFEE",
"i+	c #E2E2EF",
"j+	c #E5E5F1",
"k+	c #E8E8F3",
"l+	c #EBEBF4",
"m+	c #EFEFF8",
"n+	c #C4C4CF",
"o+	c #56566B",
"p+	c #797995",
"q+	c #D7D7EC",
"r+	c #D3D3E8",
"s+	c #D4D4E9",
"t+	c #D6D6E9",
"u+	c #E2E2F0",
"v+	c #ECECF7",
"w+	c #AFAFBD",
"x+	c #565669",
"y+	c #82829D",
"z+	c #D2D2E9",
"A+	c #CECEE6",
"B+	c #D0D0E6",
"C+	c #D1D1E7",
"D+	c #D6D6EA",
"E+	c #DCDCED",
"F+	c #E8E8F4",
"G+	c #9C9CAB",
"H+	c #8A8AA5",
"I+	c #CDCDE7",
"J+	c #CACAE4",
"K+	c #CCCCE4",
"L+	c #CDCDE5",
"M+	c #D0D0E7",
"N+	c #E5E5F4",
"O+	c #8B8B9B",
"P+	c #9292AD",
"Q+	c #C7C7E5",
"R+	c #C6C6E2",
"S+	c #C7C7E2",
"T+	c #C9C9E3",
"U+	c #CBCBE4",
"V+	c #CFCFE6",
"W+	c #D2D2E7",
"X+	c #D5D5E9",
"Y+	c #D8D8EA",
"Z+	c #E2E2F2",
"`+	c #7D7D8E",
" @	c #676782",
".@	c #9A9AB7",
"+@	c #C3C3E0",
"@@	c #C1C1DF",
"#@	c #C4C4E1",
"$@	c #C8C8E2",
"%@	c #CCCCE5",
"&@	c #DDDDF2",
"*@	c #6D6D7E",
"=@	c #9999C2",
"-@	c #C5C5DC",
";@	c #B2B2CF",
">@	c #8585B2",
",@	c #8787B5",
"'@	c #64647E",
")@	c #A5A5C4",
"!@	c #BDBDDE",
"~@	c #BDBDDD",
"{@	c #BEBEDE",
"]@	c #C0C0DF",
"^@	c #C5C5E1",
"/@	c #DADAEF",
"(@	c #626271",
"_@	c #9696C8",
":@	c #BCBCD8",
"<@	c #BBBBD1",
"[@	c #8080A6",
"}@	c #7D7DA6",
"|@	c #5D5D73",
"1@	c #AEAED2",
"2@	c #B8B8DB",
"3@	c #BABADC",
"4@	c #BBBBDC",
"5@	c #C2C2DF",
"6@	c #C8C8E3",
"7@	c #CACAE3",
"8@	c #D5D5EE",
"9@	c #535361",
"0@	c #9797C0",
"a@	c #EFEFF3",
"b@	c #7B7B9D",
"c@	c #656584",
"d@	c #A7A7CC",
"e@	c #B6B6DD",
"f@	c #B6B6DA",
"g@	c #B5B5D9",
"h@	c #B7B7DA",
"i@	c #BFBFDE",
"j@	c #C8C8E4",
"k@	c #CFCFEA",
"l@	c #4B4B59",
"m@	c #AFAFCC",
"n@	c #DEDEE9",
"o@	c #E1E1EB",
"p@	c #E6E6EE",
"q@	c #F8F8FA",
"r@	c #FDFDFD",
"s@	c #C6C6D3",
"t@	c #777792",
"u@	c #757595",
"v@	c #9E9EC3",
"w@	c #B4B4DD",
"x@	c #B4B4DA",
"y@	c #B5B5DA",
"z@	c #BCBCDD",
"A@	c #C2C2E0",
"B@	c #C2C2DE",
"C@	c #4B4B58",
"D@	c #8484AD",
"E@	c #AEAECA",
"F@	c #CFCFE0",
"G@	c #D3D3E1",
"H@	c #D8D8E5",
"I@	c #DDDDE9",
"J@	c #E3E3EC",
"K@	c #EEEEF3",
"L@	c #F3F3F7",
"M@	c #CDCDD6",
"N@	c #77778D",
"O@	c #676784",
"P@	c #9595B7",
"Q@	c #B3B3DC",
"R@	c #B3B3D9",
"S@	c #B4B4D9",
"T@	c #B9B9DB",
"U@	c #B3B3D0",
"V@	c #4A4A57",
"W@	c #8080A8",
"X@	c #9D9DBC",
"Y@	c #C1C1D5",
"Z@	c #C4C4D8",
"`@	c #CACADC",
" #	c #CFCFDF",
".#	c #D5D5E3",
"+#	c #DADAE7",
"@#	c #E0E0EA",
"##	c #E5E5EE",
"$#	c #EAEAF1",
"%#	c #D7D7DC",
"&#	c #7C7C8B",
"*#	c #5B5B72",
"=#	c #8A8AAB",
"-#	c #B1B1D9",
";#	c #B2B2DA",
">#	c #B2B2D8",
",#	c #B6B6D9",
"'#	c #BCBCDE",
")#	c #A4A4C0",
"!#	c #494954",
"~#	c #8282A8",
"{#	c #B3B3CD",
"]#	c #B7B7D0",
"^#	c #BCBCD2",
"/#	c #C1C1D6",
"(#	c #C7C7D9",
"_#	c #DCDCE8",
":#	c #E2E2EC",
"<#	c #EDEDF3",
"[#	c #E1E1E3",
"}#	c #82828D",
"|#	c #4F4F61",
"1#	c #82829F",
"2#	c #ADADD6",
"3#	c #B2B2DB",
"4#	c #B0B0D8",
"5#	c #B1B1D7",
"6#	c #B3B3D8",
"7#	c #B9B9DD",
"8#	c #9292AE",
"9#	c #484853",
"0#	c #8181A6",
"a#	c #8C8CAD",
"b#	c #AAAAC8",
"c#	c #AFAFCA",
"d#	c #B3B3CE",
"e#	c #B9B9D0",
"f#	c #BEBED4",
"g#	c #C3C3D7",
"h#	c #CECEDE",
"i#	c #D4D4E2",
"j#	c #D9D9E6",
"k#	c #DFDFE9",
"l#	c #E4E4ED",
"m#	c #F0F0F2",
"n#	c #666670",
"o#	c #4A4A56",
"p#	c #787892",
"q#	c #A9A9D1",
"r#	c #B0B0DB",
"s#	c #AFAFD7",
"t#	c #B0B0D7",
"u#	c #B4B4DB",
"v#	c #81819A",
"w#	c #474752",
"x#	c #76769A",
"y#	c #7E7EA0",
"z#	c #9898B9",
"A#	c #A6A6C4",
"B#	c #ABABC8",
"C#	c #B0B0CA",
"D#	c #B5B5CE",
"E#	c #C0C0D5",
"F#	c #C5C5D9",
"G#	c #CBCBDC",
"H#	c #D0D0E0",
"I#	c #D6D6E4",
"J#	c #DBDBE7",
"K#	c #E1E1E8",
"L#	c #666672",
"M#	c #4C4C5C",
"N#	c #50505F",
"O#	c #474751",
"P#	c #3C3C42",
"Q#	c #72728D",
"R#	c #AEAEDA",
"S#	c #ACACD5",
"T#	c #B1B1DB",
"U#	c #717187",
"V#	c #717191",
"W#	c #7D7D9D",
"X#	c #9696B6",
"Y#	c #A3A3C2",
"Z#	c #A8A8C5",
"`#	c #ACACC9",
" $	c #B2B2CC",
".$	c #B7B7CF",
"+$	c #BDBDD3",
"@$	c #C2C2D6",
"#$	c #C8C8DA",
"$$	c #CDCDDE",
"%$	c #D3D3E2",
"&$	c #DCDCEA",
"*$	c #5E5E6C",
"=$	c #5D5D75",
"-$	c #696984",
";$	c #65657D",
">$	c #606077",
",$	c #5A5A6E",
"'$	c #3C3C48",
")$	c #72728E",
"!$	c #A9A9D6",
"~$	c #ADADDA",
"{$	c #5C5C6B",
"]$	c #6B6B89",
"^$	c #787896",
"/$	c #9393B4",
"($	c #9F9FC1",
"_$	c #A4A4C3",
":$	c #A9A9C7",
"<$	c #B0B0CB",
"[$	c #B4B4CD",
"}$	c #BABAD1",
"|$	c #BFBFD4",
"1$	c #C7C7DB",
"2$	c #9999A9",
"3$	c #4E4E61",
"4$	c #767698",
"5$	c #717190",
"6$	c #6D6D88",
"7$	c #686883",
"8$	c #5E5E75",
"9$	c #3D3D46",
"0$	c #A9A9D9",
"a$	c #AAAAD9",
"b$	c #494951",
"c$	c #65657F",
"d$	c #73738F",
"e$	c #8F8FB1",
"f$	c #9C9CBE",
"g$	c #A1A1C0",
"h$	c #A5A5C3",
"i$	c #ABABC7",
"j$	c #B1B1CB",
"k$	c #BBBBD5",
"l$	c #6C6C7C",
"m$	c #444457",
"n$	c #646480",
"o$	c #7F7FA5",
"p$	c #7A7A9E",
"q$	c #757596",
"r$	c #6E6E8D",
"s$	c #353539",
"t$	c #A4A4D7",
"u$	c #9B9BC8",
"v$	c #404046",
"w$	c #5D5D72",
"x$	c #6F6F8A",
"y$	c #8E8EB1",
"z$	c #9898BC",
"A$	c #9D9DBE",
"B$	c #A2A2C1",
"C$	c #AEAECB",
"D$	c #595969",
"E$	c #7E7EA4",
"F$	c #8181A9",
"G$	c #54546A",
"H$	c #3F3F4C",
"I$	c #8686B0",
"J$	c #555567",
"K$	c #555568",
"L$	c #7E7EA3",
"M$	c #3F3F44",
"N$	c #565668",
"O$	c #6A6A86",
"P$	c #8A8AAE",
"Q$	c #9595BA",
"R$	c #9C9CC1",
"S$	c #8383AC",
"T$	c #8888B2",
"U$	c #79799E",
"V$	c #4B4B5A",
"W$	c #3A3A41",
"X$	c #3E3E47",
"Y$	c #8E8EBB",
"Z$	c #9797CA",
"`$	c #5D5D74",
" %	c #4F4F5D",
".%	c #666680",
"+%	c #8A8AB2",
"@%	c #6C6C85",
"#%	c #5A5A6D",
"$%	c #7C7CA2",
"%%	c #7D7DA3",
"&%	c #8181A8",
"*%	c #737395",
"=%	c #8B8BB7",
"-%	c #8D8DBA",
";%	c #3D3D44",
">%	c #4D4D59",
",%	c #494953",
"'%	c #5F5F76",
")%	c #424249",
"!%	c #787899",
"~%	c #78789B",
"{%	c #8080A7",
"]%	c #8585AF",
"^%	c #63637A",
"/%	c #3C3C40",
"(%	c #46464E",
"_%	c #404047",
":%	c #43434A",
"<%	c #6A6A87",
"[%	c #737393",
"}%	c #747496",
"|%	c #77779A",
"1%	c #7B7B9F",
"2%	c #3A3A3C",
"3%	c #3A3A3D",
"4%	c #525262",
"5%	c #63637B",
"6%	c #676780",
"7%	c #58586B",
"8%	c #3B3B3E",
"9%	c #39393C",
"0%	c #38383B",
"a%	c #38383A",
"                                                                                                ",
"                                                                                                ",
"                                        . + @                                                   ",
"                                    # $ % & * = - ;                                             ",
"                                  > , ' ) ! ~ { ] ^ / ( _                                       ",
"                                  : < < [ } | 1 2 3 4 5 6 7 8 9                                 ",
"                                0 a < < < < b c d e f g h i j k l m n                           ",
"                                o < < < < < < < < b c p q r g h s j t u v w                     ",
"                                x < < < < < < < < < < < b c p y z 2 h A B C D E F               ",
"                              G H < < < < < < < < < < < < < c < I J K L M N O P Q R S           ",
"                              T U < < < < < < < < < < < < < < < < < b V W X Y Z `  ...+.        ",
"                              @.[ < < < < < < < < < < < < < < < < < #.$.%.&.*.=.-.;.>.,.'.      ",
"                              ).< b < < < < < < < < < < < < < < < !.~.{.].^./.(._.:.<.[.}.      ",
"                              |.< } 1.b c < < < < < < < < < < < < 2.3.4.5.6.7.8.9.0.a.b.c.      ",
"                              d.' e.f.p g.h.b c < < < < < < < < < i.j.k.l.m.n.o.0.b.0.9.p.      ",
"                            q.r.s.t.u.v.e.f.p g.h.b c < < < < < w.x.y.z.A.B.C.D.D.b.E.F.G.      ",
"                            H.I.J.K.J.L.t.u.v.e.f.p g.h.b c < < M.N.O.P.Q.R.).S.T.U.V.W.        ",
"                            . X.Y.Z.`. +.+J.++t.@+v.#+f.d g.h.< $+        %+&+*+=+-+;+          ",
"                            >+,+'+)+!+~+Z.`. +.+J.++t.@+v.#+{+< ]+            ^+G./+            ",
"                            (+_+:+<+[+}+)+!+~+Z.`.|+.+J.++1+v.s.R                               ",
"                            2+3+4+5+6+7+<+[+}+)+8+~+Z.`.|+.+9+0+a+                              ",
"                            b+c+d+e+f+g+5+h+7+i+[+j+)+k+~+l+m+n+o+                              ",
"                            p+q+r+s+t+d+e+f+g+5+h+7+u+[+j+)+v+w+x+                              ",
"                            y+z+A+B+C+r+s+D+d+e+f+E+5+h+7+u+F+G+                                ",
"                            H+I+J+K+L+A+M+C+r+s+D+d+e+f+E+5+N+O+                                ",
"                            P+Q+R+S+T+U+K+L+V+M+W+r+X+D+Y+e+Z+`+                                ",
"                           @.@+@@@+@#@R+$@T+U+%@L+V+M+W+r+X+&@*@                                ",
"        =@F.-@;@>@,@      '@)@!@~@{@]@@@+@^@R+$@T+U+%@L+V+M+/@(@                                ",
"      _@:@< < < p <@[@}@  |@1@2@2@3@4@~@{@]@5@+@^@R+6@7@U+%@8@9@                                ",
"      0@a@z u.p < < [ % b@c@d@e@f@g@h@2@3@4@~@i@]@5@+@^@S+j@k@l@                                ",
"      m@n@o@p@g f q@r@< < s@t@u@v@w@x@y@g@h@2@3@z@~@i@]@A@^@B@C@                                ",
"    D@E@F@G@H@I@J@i K@L@d < < M@N@O@P@Q@x@R@S@g@h@T@3@z@~@]@U@V@                                ",
"    W@X@Y@Z@`@ #.#+#@###$#z v.[ < %#&#*#=#-#;#>#>#S@,#h@T@'#)#!#                                ",
"      ~#{#]#^#/#(#a ,+B _#:#{ <#L@} < [#}#|#1#2#3#4#5#6#S@7#8#9#                                ",
"      0#a#b#c#d#e#f#g#X.h#i#j#k#l#h z #+< m#n#o#p#q#r#s#t#u#v#w#                                ",
"        x#y#z#A#B#C#D#<@E#F#G#H#I#J#o@i K#L#M#N#O#P#Q#R#S#T#U#                                  ",
"            V#W#X#Y#Z#`# $.$+$@$#$$$%$&$*$=$-$;$>$,$'$)$!$~${$                                  ",
"                ]$^$/$($_$:$<$[$}$|$1$2$3$3.4$5$6$7$8$9$0$a$b$                                  ",
"                    c$d$e$f$g$h$i$j$k$l$N.m$n$o$p$q$r$s$t$u$v$                                  ",
"                        w$x$y$z$A$B$C$D$E$F$G$H$O@I$J$K$6.L$M$                                  ",
"                          m N$O$P$Q$R${$5$S$T$U$V$W$X$Y$Z$`$                                    ",
"                              E  %.%+%@%#%$%%%&%I$*%I$=%-%;%                                    ",
"                                  >%,%'%)%_ !%~%p$E${%]%^%/%                                    ",
"                                      (%_%:%<%[%}%|%1%V#2%                                      ",
"                                          M$3%4%5%6%7%8%                                        ",
"                                              9%0%a%0%                                          ",
"                                                                                                ",
"                                                                                                "};
